<?xml version="1.0" encoding="utf-8" standalone="no"?>
<!DOCTYPE svg PUBLIC "-//W3C//DTD SVG 1.1//EN"
  "http://www.w3.org/Graphics/SVG/1.1/DTD/svg11.dtd">
<!-- Created with matplotlib (http://matplotlib.org/) -->
<svg height="288pt" version="1.1" viewBox="0 0 432 288" width="432pt" xmlns="http://www.w3.org/2000/svg" xmlns:xlink="http://www.w3.org/1999/xlink">
 <defs>
  <style type="text/css">
*{stroke-linecap:butt;stroke-linejoin:round;}
  </style>
 </defs>
 <g id="figure_1">
  <g id="patch_1">
   <path d="
M0 288
L432 288
L432 0
L0 0
z
" style="fill:#ffffff;"/>
  </g>
  <g id="axes_1">
   <g id="patch_2">
    <path d="
M54 252
L321.84 252
L321.84 28.8
L54 28.8
z
" style="fill:#eaeaf2;"/>
   </g>
   <g id="matplotlib.axis_1">
    <g id="xtick_1">
     <g id="line2d_1">
      <defs>
       <path d="
M0 0
L0 0" id="m219da94a98" style="stroke:#262626;"/>
      </defs>
      <g>
       <use style="fill:#262626;stroke:#262626;" x="67.392" xlink:href="#m219da94a98" y="252.0"/>
      </g>
     </g>
     <g id="text_1">
      <!-- 1 -->
      <defs>
       <path d="
M7.625 0
L7.625 7.46875
L25.1406 7.46875
L25.1406 60.4062
L9.625 49.3125
L9.625 57.625
L25.875 68.7969
L33.9844 68.7969
L33.9844 7.46875
L50.7344 7.46875
L50.7344 0
z
" id="LiberationSans-31"/>
      </defs>
      <g style="fill:#262626;" transform="translate(65.23653125 266.246875)scale(0.1 -0.1)">
       <use xlink:href="#LiberationSans-31"/>
      </g>
     </g>
    </g>
    <g id="xtick_2">
     <g id="line2d_2">
      <g>
       <use style="fill:#262626;stroke:#262626;" x="94.176" xlink:href="#m219da94a98" y="252.0"/>
      </g>
     </g>
     <g id="text_2">
      <!-- 2 -->
      <defs>
       <path d="
M5.03125 0
L5.03125 6.20312
Q7.51562 11.9219 11.1094 16.2812
Q14.7031 20.6562 18.6562 24.1875
Q22.6094 27.7344 26.4844 30.7656
Q30.375 33.7969 33.5 36.8125
Q36.625 39.8438 38.5469 43.1562
Q40.4844 46.4844 40.4844 50.6875
Q40.4844 53.6094 39.5938 55.8281
Q38.7188 58.0625 37.0625 59.5625
Q35.4062 61.0781 33.0781 61.8281
Q30.7656 62.5938 27.9375 62.5938
Q25.2969 62.5938 22.9688 61.8594
Q20.6562 61.1406 18.8438 59.6719
Q17.0469 58.2031 15.8906 56.0312
Q14.75 53.8594 14.4062 50.9844
L5.42188 51.8125
Q5.85938 55.5156 7.46875 58.7812
Q9.07812 62.0625 11.9062 64.5312
Q14.75 67 18.7188 68.4062
Q22.7031 69.8281 27.9375 69.8281
Q33.0625 69.8281 37.0625 68.6094
Q41.0625 67.3906 43.8125 64.9844
Q46.5781 62.5938 48.0469 59.0781
Q49.5156 55.5625 49.5156 50.9844
Q49.5156 47.5156 48.2656 44.3906
Q47.0156 41.2656 44.9375 38.4219
Q42.875 35.5938 40.1406 32.9531
Q37.4062 30.3281 34.4219 27.8125
Q31.4531 25.2969 28.4219 22.8281
Q25.3906 20.3594 22.7188 17.8594
Q20.0625 15.375 17.9688 12.8125
Q15.875 10.25 14.7031 7.46875
L50.5938 7.46875
L50.5938 0
z
" id="LiberationSans-32"/>
      </defs>
      <g style="fill:#262626;" transform="translate(91.897875 266.246875)scale(0.1 -0.1)">
       <use xlink:href="#LiberationSans-32"/>
      </g>
     </g>
    </g>
    <g id="xtick_3">
     <g id="line2d_3">
      <g>
       <use style="fill:#262626;stroke:#262626;" x="120.96" xlink:href="#m219da94a98" y="252.0"/>
      </g>
     </g>
     <g id="text_3">
      <!-- 3 -->
      <defs>
       <path d="
M51.2188 19
Q51.2188 14.2656 49.6719 10.5469
Q48.1406 6.84375 45.1875 4.26562
Q42.2344 1.70312 37.8594 0.359375
Q33.5 -0.984375 27.875 -0.984375
Q21.4844 -0.984375 17.1094 0.609375
Q12.75 2.20312 9.90625 4.8125
Q7.07812 7.42188 5.65625 10.7656
Q4.25 14.1094 3.8125 17.6719
L12.8906 18.5
Q13.2812 15.7656 14.3281 13.5156
Q15.375 11.2812 17.1875 9.67188
Q19 8.0625 21.625 7.17188
Q24.2656 6.29688 27.875 6.29688
Q34.5156 6.29688 38.2969 9.5625
Q42.0938 12.8438 42.0938 19.2812
Q42.0938 23.0938 40.4062 25.4062
Q38.7188 27.7344 36.2031 29.0312
Q33.6875 30.3281 30.7344 30.7656
Q27.7812 31.2031 25.2969 31.2031
L20.3125 31.2031
L20.3125 38.8125
L25.0938 38.8125
Q27.5938 38.8125 30.2656 39.3281
Q32.9531 39.8438 35.1719 41.1875
Q37.4062 42.5312 38.8438 44.8281
Q40.2812 47.125 40.2812 50.6875
Q40.2812 56.2031 37.0312 59.3906
Q33.7969 62.5938 27.3906 62.5938
Q21.5781 62.5938 17.9844 59.6094
Q14.4062 56.6406 13.8125 51.2188
L4.98438 51.9062
Q5.51562 56.4531 7.46875 59.8125
Q9.42188 63.1875 12.4219 65.4062
Q15.4375 67.625 19.2812 68.7188
Q23.1406 69.8281 27.4844 69.8281
Q33.25 69.8281 37.3906 68.375
Q41.5469 66.9375 44.1875 64.4688
Q46.8281 62.0156 48.0625 58.6875
Q49.3125 55.375 49.3125 51.6094
Q49.3125 48.5781 48.4844 45.9375
Q47.6562 43.3125 45.8906 41.2031
Q44.1406 39.1094 41.4219 37.5938
Q38.7188 36.0781 34.9062 35.2969
L34.9062 35.1094
Q39.0625 34.6719 42.1406 33.2188
Q45.2188 31.7812 47.2188 29.625
Q49.2188 27.4844 50.2188 24.75
Q51.2188 22.0156 51.2188 19" id="LiberationSans-33"/>
      </defs>
      <g style="fill:#262626;" transform="translate(118.5896875 266.246875)scale(0.1 -0.1)">
       <use xlink:href="#LiberationSans-33"/>
      </g>
     </g>
    </g>
    <g id="xtick_4">
     <g id="line2d_4">
      <g>
       <use style="fill:#262626;stroke:#262626;" x="147.744" xlink:href="#m219da94a98" y="252.0"/>
      </g>
     </g>
     <g id="text_4">
      <!-- 4 -->
      <defs>
       <path d="
M43.0156 15.5781
L43.0156 0
L34.7188 0
L34.7188 15.5781
L2.29688 15.5781
L2.29688 22.4062
L33.7969 68.7969
L43.0156 68.7969
L43.0156 22.5156
L52.6875 22.5156
L52.6875 15.5781
z

M34.7188 58.8906
Q34.625 58.6406 34.2344 57.9375
Q33.8438 57.2344 33.3438 56.3438
Q32.8594 55.4688 32.3438 54.5625
Q31.8438 53.6562 31.4531 53.0781
L13.8125 27.0938
Q13.5781 26.7031 13.1094 26.0625
Q12.6406 25.4375 12.1562 24.7812
Q11.6719 24.125 11.1719 23.4844
Q10.6875 22.8594 10.4062 22.5156
L34.7188 22.5156
z
" id="LiberationSans-34"/>
      </defs>
      <g style="fill:#262626;" transform="translate(145.22446875 266.246875)scale(0.1 -0.1)">
       <use xlink:href="#LiberationSans-34"/>
      </g>
     </g>
    </g>
    <g id="xtick_5">
     <g id="line2d_5">
      <g>
       <use style="fill:#262626;stroke:#262626;" x="174.528" xlink:href="#m219da94a98" y="252.0"/>
      </g>
     </g>
     <g id="text_5">
      <!-- 5 -->
      <defs>
       <path d="
M51.4219 22.4062
Q51.4219 17.2344 49.8594 12.9375
Q48.2969 8.64062 45.2188 5.53125
Q42.1406 2.4375 37.5781 0.71875
Q33.0156 -0.984375 27 -0.984375
Q21.5781 -0.984375 17.5469 0.28125
Q13.5312 1.5625 10.7344 3.78125
Q7.95312 6 6.3125 8.98438
Q4.6875 11.9688 4 15.375
L12.8906 16.4062
Q13.4219 14.4531 14.3906 12.625
Q15.375 10.7969 17.0625 9.34375
Q18.75 7.90625 21.2188 7.04688
Q23.6875 6.20312 27.2031 6.20312
Q30.6094 6.20312 33.3906 7.25
Q36.1875 8.29688 38.1562 10.3438
Q40.1406 12.4062 41.2031 15.375
Q42.2812 18.3594 42.2812 22.2188
Q42.2812 25.3906 41.25 28.0469
Q40.2344 30.7188 38.3281 32.6406
Q36.4219 34.5781 33.6562 35.6406
Q30.9062 36.7188 27.3906 36.7188
Q25.2031 36.7188 23.3438 36.3281
Q21.4844 35.9375 19.8906 35.25
Q18.3125 34.5781 17.0156 33.6719
Q15.7188 32.7656 14.5938 31.7812
L6 31.7812
L8.29688 68.7969
L47.4062 68.7969
L47.4062 61.3281
L16.3125 61.3281
L14.9844 39.5
Q17.3281 41.3125 20.8438 42.5938
Q24.3594 43.8906 29.2031 43.8906
Q34.3281 43.8906 38.4219 42.3281
Q42.5312 40.7656 45.4062 37.9062
Q48.2969 35.0625 49.8594 31.1094
Q51.4219 27.1562 51.4219 22.4062" id="LiberationSans-35"/>
      </defs>
      <g style="fill:#262626;" transform="translate(172.15690625 266.246875)scale(0.1 -0.1)">
       <use xlink:href="#LiberationSans-35"/>
      </g>
     </g>
    </g>
    <g id="xtick_6">
     <g id="line2d_6">
      <g>
       <use style="fill:#262626;stroke:#262626;" x="201.312" xlink:href="#m219da94a98" y="252.0"/>
      </g>
     </g>
     <g id="text_6">
      <!-- 6 -->
      <defs>
       <path d="
M51.2188 22.5156
Q51.2188 17.3281 49.7812 13
Q48.3438 8.6875 45.5312 5.57812
Q42.7188 2.48438 38.5625 0.75
Q34.4219 -0.984375 29 -0.984375
Q23 -0.984375 18.5 1.3125
Q14.0156 3.60938 11.0312 7.92188
Q8.0625 12.25 6.5625 18.5312
Q5.07812 24.8125 5.07812 32.8125
Q5.07812 42 6.76562 48.9219
Q8.45312 55.8594 11.625 60.5
Q14.7969 65.1406 19.3594 67.4844
Q23.9219 69.8281 29.6875 69.8281
Q33.2031 69.8281 36.2812 69.0938
Q39.3594 68.3594 41.875 66.7188
Q44.3906 65.0938 46.2812 62.4062
Q48.1875 59.7188 49.3125 55.8125
L40.9219 54.2969
Q39.5469 58.7344 36.5469 60.7188
Q33.5469 62.7031 29.5938 62.7031
Q25.9844 62.7031 23.0469 60.9844
Q20.125 59.2812 18.0625 55.875
Q16.0156 52.4844 14.9062 47.3594
Q13.8125 42.2344 13.8125 35.4062
Q16.2188 39.8438 20.5625 42.1562
Q24.9062 44.4844 30.5156 44.4844
Q35.2031 44.4844 39.0156 42.9688
Q42.8281 41.4531 45.5312 38.5938
Q48.25 35.75 49.7344 31.6719
Q51.2188 27.5938 51.2188 22.5156
M42.2812 22.125
Q42.2812 25.6875 41.4062 28.5625
Q40.5312 31.4531 38.7656 33.4688
Q37.0156 35.5 34.4219 36.5938
Q31.8438 37.7031 28.4219 37.7031
Q26.0312 37.7031 23.5781 36.9844
Q21.1406 36.2812 19.1562 34.6875
Q17.1875 33.1094 15.9375 30.5156
Q14.7031 27.9375 14.7031 24.2188
Q14.7031 20.4062 15.6719 17.1094
Q16.6562 13.8125 18.4844 11.375
Q20.3125 8.9375 22.8906 7.51562
Q25.4844 6.10938 28.7188 6.10938
Q31.8906 6.10938 34.4062 7.20312
Q36.9219 8.29688 38.6719 10.375
Q40.4375 12.4531 41.3594 15.4219
Q42.2812 18.4062 42.2812 22.125" id="LiberationSans-36"/>
      </defs>
      <g style="fill:#262626;" transform="translate(199.00496875 266.246875)scale(0.1 -0.1)">
       <use xlink:href="#LiberationSans-36"/>
      </g>
     </g>
    </g>
    <g id="xtick_7">
     <g id="line2d_7">
      <g>
       <use style="fill:#262626;stroke:#262626;" x="228.096" xlink:href="#m219da94a98" y="252.0"/>
      </g>
     </g>
     <g id="text_7">
      <!-- 7 -->
      <defs>
       <path d="
M50.5938 61.6719
Q45.4062 53.7656 41.0625 46.4531
Q36.7188 39.1562 33.5938 31.75
Q30.4688 24.3594 28.7344 16.5781
Q27 8.79688 27 0
L17.8281 0
Q17.8281 8.25 19.7812 16.1875
Q21.7344 24.125 25.0469 31.7656
Q28.375 39.4062 32.7656 46.7812
Q37.1562 54.1562 42.0938 61.3281
L5.125 61.3281
L5.125 68.7969
L50.5938 68.7969
z
" id="LiberationSans-37"/>
      </defs>
      <g style="fill:#262626;" transform="translate(225.8225625 266.246875)scale(0.1 -0.1)">
       <use xlink:href="#LiberationSans-37"/>
      </g>
     </g>
    </g>
    <g id="xtick_8">
     <g id="line2d_8">
      <g>
       <use style="fill:#262626;stroke:#262626;" x="254.88" xlink:href="#m219da94a98" y="252.0"/>
      </g>
     </g>
     <g id="text_8">
      <!-- 8 -->
      <defs>
       <path d="
M51.2656 19.1875
Q51.2656 14.7969 49.875 11.1094
Q48.4844 7.42188 45.625 4.73438
Q42.7812 2.04688 38.3281 0.53125
Q33.8906 -0.984375 27.8281 -0.984375
Q21.7812 -0.984375 17.3594 0.53125
Q12.9375 2.04688 10.0312 4.70312
Q7.125 7.375 5.73438 11.0625
Q4.34375 14.75 4.34375 19.0938
Q4.34375 22.8594 5.48438 25.7812
Q6.64062 28.7188 8.5625 30.8281
Q10.5 32.9531 12.9688 34.25
Q15.4375 35.5469 18.0625 35.9844
L18.0625 36.1875
Q15.1875 36.8594 12.9062 38.375
Q10.6406 39.8906 9.09375 42.0156
Q7.5625 44.1406 6.75 46.7188
Q5.95312 49.3125 5.95312 52.2031
Q5.95312 55.8125 7.34375 59
Q8.73438 62.2031 11.4688 64.625
Q14.2031 67.0469 18.25 68.4375
Q22.3125 69.8281 27.6406 69.8281
Q33.25 69.8281 37.375 68.4062
Q41.5 67 44.2031 64.5781
Q46.9219 62.1562 48.2344 58.9375
Q49.5625 55.7188 49.5625 52.0938
Q49.5625 49.2656 48.75 46.6719
Q47.9531 44.0938 46.4062 41.9688
Q44.875 39.8438 42.5938 38.3438
Q40.3281 36.8594 37.3594 36.2812
L37.3594 36.0781
Q40.3281 35.5938 42.8594 34.2969
Q45.4062 33.0156 47.2656 30.8906
Q49.125 28.7656 50.1875 25.8281
Q51.2656 22.9062 51.2656 19.1875
M40.4375 51.6094
Q40.4375 54.2031 39.7656 56.3438
Q39.1094 58.5 37.5938 60.0312
Q36.0781 61.5781 33.6406 62.4219
Q31.2031 63.2812 27.6406 63.2812
Q24.1719 63.2812 21.7812 62.4219
Q19.3906 61.5781 17.8438 60.0312
Q16.3125 58.5 15.625 56.3438
Q14.9375 54.2031 14.9375 51.6094
Q14.9375 49.5625 15.4688 47.4062
Q16.0156 45.2656 17.4219 43.5
Q18.8438 41.75 21.3281 40.625
Q23.8281 39.5 27.7344 39.5
Q31.8906 39.5 34.4062 40.625
Q36.9219 41.75 38.25 43.5
Q39.5938 45.2656 40.0156 47.4062
Q40.4375 49.5625 40.4375 51.6094
M42.1406 20.0156
Q42.1406 22.5156 41.4531 24.8281
Q40.7656 27.1562 39.1094 28.9375
Q37.4531 30.7188 34.6406 31.8125
Q31.8438 32.9062 27.6406 32.9062
Q23.7812 32.9062 21.0625 31.8125
Q18.3594 30.7188 16.6719 28.9062
Q14.9844 27.0938 14.2031 24.7188
Q13.4219 22.3594 13.4219 19.8281
Q13.4219 16.6562 14.2031 14.0312
Q14.9844 11.4219 16.6875 9.54688
Q18.4062 7.67188 21.1875 6.64062
Q23.9688 5.60938 27.9375 5.60938
Q31.9375 5.60938 34.6719 6.64062
Q37.4062 7.67188 39.0625 9.54688
Q40.7188 11.4219 41.4219 14.0781
Q42.1406 16.75 42.1406 20.0156" id="LiberationSans-38"/>
      </defs>
      <g style="fill:#262626;" transform="translate(252.53390625 266.246875)scale(0.1 -0.1)">
       <use xlink:href="#LiberationSans-38"/>
      </g>
     </g>
    </g>
    <g id="xtick_9">
     <g id="line2d_9">
      <g>
       <use style="fill:#262626;stroke:#262626;" x="281.664" xlink:href="#m219da94a98" y="252.0"/>
      </g>
     </g>
     <g id="text_9">
      <!-- 9 -->
      <defs>
       <path d="
M50.875 35.7969
Q50.875 26.6094 49.1406 19.7031
Q47.4062 12.7969 44.1875 8.20312
Q40.9688 3.60938 36.3438 1.3125
Q31.7344 -0.984375 25.9844 -0.984375
Q22.0156 -0.984375 18.8438 -0.171875
Q15.6719 0.640625 13.1719 2.34375
Q10.6875 4.04688 8.92188 6.78125
Q7.17188 9.51562 6.10938 13.375
L14.5 14.7031
Q15.875 10.25 18.7812 8.17188
Q21.6875 6.10938 26.125 6.10938
Q29.6875 6.10938 32.6406 7.78125
Q35.5938 9.46875 37.6719 12.8438
Q39.75 16.2188 40.9219 21.2969
Q42.0938 26.375 42.1875 33.2031
Q41.1562 30.9062 39.375 29.0938
Q37.5938 27.2969 35.3281 26.0469
Q33.0625 24.8125 30.4219 24.1406
Q27.7812 23.4844 25.0938 23.4844
Q20.4062 23.4844 16.625 25.1719
Q12.8438 26.8594 10.2031 29.875
Q7.5625 32.9062 6.125 37.1719
Q4.6875 41.4531 4.6875 46.6875
Q4.6875 52 6.21875 56.2969
Q7.76562 60.5938 10.6875 63.5938
Q13.625 66.6094 17.8906 68.2188
Q22.1719 69.8281 27.5938 69.8281
Q39.0625 69.8281 44.9688 61.3281
Q50.875 52.8281 50.875 35.7969
M41.3125 44.2812
Q41.3125 48.0938 40.4062 51.4531
Q39.5 54.8281 37.7188 57.3125
Q35.9375 59.8125 33.3281 61.25
Q30.7188 62.7031 27.2969 62.7031
Q24.125 62.7031 21.5781 61.5781
Q19.0469 60.4531 17.2812 58.375
Q15.5312 56.2969 14.5781 53.3125
Q13.625 50.3438 13.625 46.6875
Q13.625 43.2188 14.4688 40.2344
Q15.3281 37.25 17.0312 35.0781
Q18.75 32.9062 21.2812 31.6562
Q23.8281 30.4219 27.2031 30.4219
Q29.6406 30.4219 32.1562 31.25
Q34.6719 32.0781 36.6875 33.7812
Q38.7188 35.5 40.0156 38.1094
Q41.3125 40.7188 41.3125 44.2812" id="LiberationSans-39"/>
      </defs>
      <g style="fill:#262626;" transform="translate(279.354625 266.246875)scale(0.1 -0.1)">
       <use xlink:href="#LiberationSans-39"/>
      </g>
     </g>
    </g>
    <g id="xtick_10">
     <g id="line2d_10">
      <g>
       <use style="fill:#262626;stroke:#262626;" x="308.448" xlink:href="#m219da94a98" y="252.0"/>
      </g>
     </g>
     <g id="text_10">
      <!-- 10 -->
      <defs>
       <path d="
M51.7031 34.4219
Q51.7031 24.5156 49.8281 17.75
Q47.9531 10.9844 44.7031 6.8125
Q41.4531 2.64062 37.0625 0.828125
Q32.6719 -0.984375 27.6875 -0.984375
Q22.6562 -0.984375 18.3125 0.828125
Q13.9688 2.64062 10.7656 6.78125
Q7.5625 10.9375 5.73438 17.7031
Q3.90625 24.4688 3.90625 34.4219
Q3.90625 44.8281 5.73438 51.6406
Q7.5625 58.4531 10.7812 62.5
Q14.0156 66.5469 18.4062 68.1875
Q22.7969 69.8281 27.9844 69.8281
Q32.9062 69.8281 37.2188 68.1875
Q41.5469 66.5469 44.7656 62.5
Q48 58.4531 49.8438 51.6406
Q51.7031 44.8281 51.7031 34.4219
M42.7812 34.4219
Q42.7812 42.625 41.7969 48.0625
Q40.8281 53.5156 38.9219 56.7656
Q37.0156 60.0156 34.25 61.3594
Q31.5 62.7031 27.9844 62.7031
Q24.2656 62.7031 21.4375 61.3281
Q18.6094 59.9688 16.6719 56.7188
Q14.75 53.4688 13.7656 48.0156
Q12.7969 42.5781 12.7969 34.4219
Q12.7969 26.5156 13.7969 21.0938
Q14.7969 15.6719 16.7188 12.375
Q18.6562 9.07812 21.4375 7.64062
Q24.2188 6.20312 27.7812 6.20312
Q31.25 6.20312 34.0312 7.64062
Q36.8125 9.07812 38.7344 12.375
Q40.6719 15.6719 41.7188 21.0938
Q42.7812 26.5156 42.7812 34.4219" id="LiberationSans-30"/>
      </defs>
      <g style="fill:#262626;" transform="translate(303.463625 266.246875)scale(0.1 -0.1)">
       <use xlink:href="#LiberationSans-31"/>
       <use x="55.615234375" xlink:href="#LiberationSans-30"/>
      </g>
     </g>
    </g>
    <g id="text_11">
     <!-- Dist to first -->
     <defs>
      <path d="
M46.3906 14.5938
Q46.3906 10.8906 44.9375 7.98438
Q43.5 5.07812 40.7656 3.09375
Q38.0312 1.125 34.0469 0.0625
Q30.0781 -0.984375 24.9531 -0.984375
Q20.3594 -0.984375 16.6719 -0.265625
Q12.9844 0.4375 10.2031 2
Q7.42188 3.5625 5.53125 6.125
Q3.65625 8.6875 2.78125 12.4062
L10.5469 13.9219
Q11.6719 9.67188 15.1875 7.6875
Q18.7031 5.71875 24.9531 5.71875
Q27.7812 5.71875 30.1406 6.10938
Q32.5156 6.5 34.2188 7.45312
Q35.9375 8.40625 36.8906 9.98438
Q37.8438 11.5781 37.8438 13.9219
Q37.8438 16.3125 36.7188 17.8438
Q35.5938 19.3906 33.5938 20.4062
Q31.5938 21.4375 28.7344 22.1875
Q25.875 22.9531 22.4688 23.875
Q19.2812 24.7031 16.1562 25.7344
Q13.0312 26.7656 10.5156 28.4375
Q8.01562 30.125 6.45312 32.6094
Q4.89062 35.1094 4.89062 38.875
Q4.89062 46.0938 10.0312 49.875
Q15.1875 53.6562 25.0469 53.6562
Q33.7969 53.6562 38.9375 50.5781
Q44.0938 47.5156 45.4531 40.7188
L37.5469 39.75
Q37.1094 41.7969 35.9375 43.1875
Q34.7656 44.5781 33.1094 45.4375
Q31.4531 46.2969 29.375 46.6562
Q27.2969 47.0156 25.0469 47.0156
Q19.0938 47.0156 16.25 45.2031
Q13.4219 43.4062 13.4219 39.75
Q13.4219 37.5938 14.4688 36.2031
Q15.5312 34.8125 17.4062 33.8594
Q19.2812 32.9062 21.9219 32.2031
Q24.5625 31.5 27.7344 30.7188
Q29.8281 30.1719 32.0312 29.5625
Q34.2344 28.9531 36.2969 28.0938
Q38.375 27.25 40.2031 26.0938
Q42.0469 24.9531 43.4062 23.3438
Q44.7812 21.7344 45.5781 19.5781
Q46.3906 17.4375 46.3906 14.5938" id="LiberationSans-73"/>
      <path d="
M6.9375 0
L6.9375 40.5312
Q6.9375 42.1875 6.90625 43.9219
Q6.89062 45.6562 6.82812 47.2656
Q6.78125 48.875 6.73438 50.2812
Q6.6875 51.7031 6.64062 52.8281
L14.9375 52.8281
Q14.9844 51.7031 15.0625 50.2656
Q15.1406 48.8281 15.2031 47.3125
Q15.2812 45.7969 15.2969 44.4062
Q15.3281 43.0156 15.3281 42.0469
L15.5312 42.0469
Q16.4531 45.0625 17.5 47.2812
Q18.5625 49.5156 19.9688 50.9531
Q21.3906 52.3906 23.3438 53.0938
Q25.2969 53.8125 28.0781 53.8125
Q29.1562 53.8125 30.125 53.6406
Q31.1094 53.4688 31.6406 53.3281
L31.6406 45.2656
Q30.7656 45.5156 29.5938 45.625
Q28.4219 45.75 26.9531 45.75
Q23.9219 45.75 21.7969 44.375
Q19.6719 43.0156 18.3281 40.5938
Q17 38.1875 16.3594 34.8438
Q15.7188 31.5 15.7188 27.5469
L15.7188 0
z
" id="LiberationSans-72"/>
      <path d="
M17.625 46.4375
L17.625 0
L8.84375 0
L8.84375 46.4375
L1.42188 46.4375
L1.42188 52.8281
L8.84375 52.8281
L8.84375 58.7969
Q8.84375 61.6719 9.375 64.1406
Q9.90625 66.6094 11.3438 68.4375
Q12.7969 70.2656 15.2812 71.3125
Q17.7812 72.3594 21.7344 72.3594
Q23.2969 72.3594 24.9688 72.2188
Q26.6562 72.0781 27.9375 71.7812
L27.9375 65.0938
Q27.0938 65.2344 26 65.3594
Q24.9062 65.4844 24.0312 65.4844
Q22.0781 65.4844 20.8281 64.9375
Q19.5781 64.4062 18.875 63.4062
Q18.1719 62.4062 17.8906 60.9375
Q17.625 59.4688 17.625 57.5625
L17.625 52.8281
L27.9375 52.8281
L27.9375 46.4375
z
" id="LiberationSans-66"/>
      <path d="
M27.0469 0.390625
Q25.0469 -0.140625 22.9688 -0.453125
Q20.9062 -0.78125 18.1719 -0.78125
Q7.625 -0.78125 7.625 11.1875
L7.625 46.4375
L1.51562 46.4375
L1.51562 52.8281
L7.95312 52.8281
L10.5469 64.6562
L16.4062 64.6562
L16.4062 52.8281
L26.1719 52.8281
L26.1719 46.4375
L16.4062 46.4375
L16.4062 13.0938
Q16.4062 9.28125 17.6406 7.73438
Q18.8906 6.20312 21.9688 6.20312
Q23.25 6.20312 24.4375 6.39062
Q25.6406 6.59375 27.0469 6.89062
z
" id="LiberationSans-74"/>
      <path d="
M6.6875 64.0625
L6.6875 72.4688
L15.4844 72.4688
L15.4844 64.0625
z

M6.6875 0
L6.6875 52.8281
L15.4844 52.8281
L15.4844 0
z
" id="LiberationSans-69"/>
      <path d="
M51.4219 26.4688
Q51.4219 12.5938 45.3125 5.79688
Q39.2031 -0.984375 27.5938 -0.984375
Q22.0781 -0.984375 17.7188 0.671875
Q13.375 2.34375 10.375 5.76562
Q7.375 9.1875 5.78125 14.3281
Q4.20312 19.4844 4.20312 26.4688
Q4.20312 53.8125 27.875 53.8125
Q34.0312 53.8125 38.5 52.0938
Q42.9688 50.3906 45.8281 46.9688
Q48.6875 43.5625 50.0469 38.4219
Q51.4219 33.2969 51.4219 26.4688
M42.1875 26.4688
Q42.1875 32.625 41.2344 36.625
Q40.2812 40.625 38.4531 43.0156
Q36.625 45.4062 33.9844 46.3594
Q31.3438 47.3125 28.0312 47.3125
Q24.6562 47.3125 21.9375 46.3125
Q19.2344 45.3125 17.3281 42.8906
Q15.4375 40.4844 14.4219 36.4688
Q13.4219 32.4688 13.4219 26.4688
Q13.4219 20.3125 14.5 16.2812
Q15.5781 12.25 17.4531 9.85938
Q19.3438 7.46875 21.9062 6.48438
Q24.4688 5.51562 27.4844 5.51562
Q30.8594 5.51562 33.5938 6.46875
Q36.3281 7.42188 38.2344 9.8125
Q40.1406 12.2031 41.1562 16.25
Q42.1875 20.3125 42.1875 26.4688" id="LiberationSans-6f"/>
      <path id="LiberationSans-20"/>
      <path d="
M67.4375 35.1094
Q67.4375 26.5156 64.8438 19.9375
Q62.25 13.375 57.75 8.95312
Q53.2656 4.54688 47.1406 2.26562
Q41.0156 0 33.9375 0
L8.20312 0
L8.20312 68.7969
L30.9531 68.7969
Q38.9219 68.7969 45.625 66.8125
Q52.3438 64.8438 57.1719 60.7188
Q62.0156 56.5938 64.7188 50.2344
Q67.4375 43.8906 67.4375 35.1094
M58.0625 35.1094
Q58.0625 42.0938 56.0469 47.0469
Q54.0469 52 50.4375 55.1719
Q46.8281 58.3438 41.7969 59.8281
Q36.7656 61.3281 30.7656 61.3281
L17.5312 61.3281
L17.5312 7.46875
L32.8594 7.46875
Q38.2812 7.46875 42.8906 9.21875
Q47.5156 10.9844 50.875 14.4531
Q54.25 17.9219 56.1562 23.0938
Q58.0625 28.2656 58.0625 35.1094" id="LiberationSans-44"/>
     </defs>
     <g style="fill:#262626;" transform="translate(161.986640625 281.2934375)scale(0.11 -0.11)">
      <use xlink:href="#LiberationSans-44"/>
      <use x="72.216796875" xlink:href="#LiberationSans-69"/>
      <use x="94.43359375" xlink:href="#LiberationSans-73"/>
      <use x="144.43359375" xlink:href="#LiberationSans-74"/>
      <use x="172.216796875" xlink:href="#LiberationSans-20"/>
      <use x="200.0" xlink:href="#LiberationSans-74"/>
      <use x="227.783203125" xlink:href="#LiberationSans-6f"/>
      <use x="283.3984375" xlink:href="#LiberationSans-20"/>
      <use x="311.181640625" xlink:href="#LiberationSans-66"/>
      <use x="338.96484375" xlink:href="#LiberationSans-69"/>
      <use x="361.181640625" xlink:href="#LiberationSans-72"/>
      <use x="394.482421875" xlink:href="#LiberationSans-73"/>
      <use x="444.482421875" xlink:href="#LiberationSans-74"/>
     </g>
    </g>
   </g>
   <g id="matplotlib.axis_2">
    <g id="ytick_1">
     <g id="line2d_11">
      <g>
       <use style="fill:#262626;stroke:#262626;" x="54.0" xlink:href="#m219da94a98" y="224.1"/>
      </g>
     </g>
     <g id="text_12">
      <!-- 4 -->
      <g style="fill:#262626;" transform="translate(44.925 226.61953125)rotate(-90.0)scale(0.1 -0.1)">
       <use xlink:href="#LiberationSans-34"/>
      </g>
     </g>
    </g>
    <g id="ytick_2">
     <g id="line2d_12">
      <g>
       <use style="fill:#262626;stroke:#262626;" x="54.0" xlink:href="#m219da94a98" y="168.3"/>
      </g>
     </g>
     <g id="text_13">
      <!-- 3 -->
      <g style="fill:#262626;" transform="translate(44.925 170.6703125)rotate(-90.0)scale(0.1 -0.1)">
       <use xlink:href="#LiberationSans-33"/>
      </g>
     </g>
    </g>
    <g id="ytick_3">
     <g id="line2d_13">
      <g>
       <use style="fill:#262626;stroke:#262626;" x="54.0" xlink:href="#m219da94a98" y="112.5"/>
      </g>
     </g>
     <g id="text_14">
      <!-- 2 -->
      <g style="fill:#262626;" transform="translate(44.925 114.778125)rotate(-90.0)scale(0.1 -0.1)">
       <use xlink:href="#LiberationSans-32"/>
      </g>
     </g>
    </g>
    <g id="ytick_4">
     <g id="line2d_14">
      <g>
       <use style="fill:#262626;stroke:#262626;" x="54.0" xlink:href="#m219da94a98" y="56.7"/>
      </g>
     </g>
     <g id="text_15">
      <!-- 1 -->
      <g style="fill:#262626;" transform="translate(44.925 58.85546875)rotate(-90.0)scale(0.1 -0.1)">
       <use xlink:href="#LiberationSans-31"/>
      </g>
     </g>
    </g>
    <g id="text_16">
     <!-- Down -->
     <defs>
      <path d="
M40.2812 0
L40.2812 33.5
Q40.2812 37.3594 39.7188 39.9375
Q39.1562 42.5312 37.8906 44.1094
Q36.625 45.7031 34.5469 46.3594
Q32.4688 47.0156 29.3906 47.0156
Q26.2656 47.0156 23.75 45.9219
Q21.2344 44.8281 19.4531 42.75
Q17.6719 40.6719 16.6875 37.625
Q15.7188 34.5781 15.7188 30.6094
L15.7188 0
L6.9375 0
L6.9375 41.5469
Q6.9375 43.2188 6.90625 45.0469
Q6.89062 46.875 6.82812 48.5
Q6.78125 50.1406 6.73438 51.3125
Q6.6875 52.4844 6.64062 52.8281
L14.9375 52.8281
Q14.9844 52.5938 15.0312 51.5156
Q15.0938 50.4375 15.1562 49.0469
Q15.2344 47.6562 15.2812 46.2188
Q15.3281 44.7812 15.3281 43.7969
L15.4844 43.7969
Q16.75 46.0938 18.2656 47.9531
Q19.7812 49.8125 21.7812 51.0938
Q23.7812 52.3906 26.3594 53.0938
Q28.9531 53.8125 32.375 53.8125
Q36.7656 53.8125 39.9375 52.7344
Q43.1094 51.6562 45.1562 49.4062
Q47.2188 47.1719 48.1719 43.625
Q49.125 40.0938 49.125 35.2031
L49.125 0
z
" id="LiberationSans-6e"/>
      <path d="
M57.3281 0
L47.125 0
L38.6719 34.0781
Q38.2812 35.4062 37.8594 37.3594
Q37.4531 39.3125 37.0625 41.1562
Q36.5781 43.3125 36.1406 45.6094
Q35.6875 43.4062 35.2031 41.2656
Q34.8125 39.4062 34.3438 37.4062
Q33.8906 35.4062 33.5 33.8906
L24.8125 0
L14.6562 0
L-0.140625 52.8281
L8.54688 52.8281
L17.4844 16.9375
Q17.8281 15.8281 18.1562 14.1875
Q18.5 12.5469 18.8438 10.9844
Q19.1875 9.1875 19.5781 7.28125
Q19.9688 9.125 20.4062 10.8906
Q20.7969 12.4062 21.1875 13.9688
Q21.5781 15.5312 21.875 16.5469
L31.4531 52.8281
L40.875 52.8281
L50.0938 16.5469
Q50.4375 15.2812 50.8281 13.6719
Q51.2188 12.0625 51.5625 10.6406
Q51.9531 8.98438 52.3438 7.28125
Q52.7344 9.125 53.125 10.8906
Q53.4688 12.4062 53.8281 14.0312
Q54.2031 15.6719 54.5469 16.9375
L63.875 52.8281
L72.4688 52.8281
z
" id="LiberationSans-77"/>
     </defs>
     <g style="fill:#262626;" transform="translate(30.395625 153.65328125)rotate(-90.0)scale(0.11 -0.11)">
      <use xlink:href="#LiberationSans-44"/>
      <use x="72.216796875" xlink:href="#LiberationSans-6f"/>
      <use x="127.83203125" xlink:href="#LiberationSans-77"/>
      <use x="200.048828125" xlink:href="#LiberationSans-6e"/>
     </g>
    </g>
   </g>
   <g id="QuadMesh_1">
    <path clip-path="url(#pf0d32d625f)" d="
M54 252
L80.784 252
L80.784 196.2
L54 196.2
L54 252" style="fill:#feffd8;"/>
    <path clip-path="url(#pf0d32d625f)" d="
M80.784 252
L107.568 252
L107.568 196.2
L80.784 196.2
L80.784 252" style="fill:#1e88bc;"/>
    <path clip-path="url(#pf0d32d625f)" d="
M107.568 252
L134.352 252
L134.352 196.2
L107.568 196.2
L107.568 252" style="fill:#243d98;"/>
    <path clip-path="url(#pf0d32d625f)" d="
M134.352 252
L161.136 252
L161.136 196.2
L134.352 196.2
L134.352 252" style="fill:#1d2e83;"/>
    <path clip-path="url(#pf0d32d625f)" d="
M161.136 252
L187.92 252
L187.92 196.2
L161.136 196.2
L161.136 252" style="fill:#1c2d81;"/>
    <path clip-path="url(#pf0d32d625f)" d="
M187.92 252
L214.704 252
L214.704 196.2
L187.92 196.2
L187.92 252" style="fill:#1d2e83;"/>
    <path clip-path="url(#pf0d32d625f)" d="
M214.704 252
L241.488 252
L241.488 196.2
L214.704 196.2
L214.704 252" style="fill:#253795;"/>
    <path clip-path="url(#pf0d32d625f)" d="
M241.488 252
L268.272 252
L268.272 196.2
L241.488 196.2
L241.488 252" style="fill:#233390;"/>
    <path clip-path="url(#pf0d32d625f)" d="
M268.272 252
L295.056 252
L295.056 196.2
L268.272 196.2
L268.272 252" style="fill:#081d58;"/>
    <path clip-path="url(#pf0d32d625f)" d="
M295.056 252
L321.84 252
L321.84 196.2
L295.056 196.2
L295.056 252" style="fill:#0c2060;"/>
    <path clip-path="url(#pf0d32d625f)" d="
M54 196.2
L80.784 196.2
L80.784 140.4
L54 140.4
L54 196.2" style="fill:#fdfed5;"/>
    <path clip-path="url(#pf0d32d625f)" d="
M80.784 196.2
L107.568 196.2
L107.568 140.4
L80.784 140.4
L80.784 196.2" style="fill:#37acc3;"/>
    <path clip-path="url(#pf0d32d625f)" d="
M107.568 196.2
L134.352 196.2
L134.352 140.4
L107.568 140.4
L107.568 196.2" style="fill:#2356a4;"/>
    <path clip-path="url(#pf0d32d625f)" d="
M134.352 196.2
L161.136 196.2
L161.136 140.4
L134.352 140.4
L134.352 196.2" style="fill:#243f99;"/>
    <path clip-path="url(#pf0d32d625f)" d="
M161.136 196.2
L187.92 196.2
L187.92 140.4
L161.136 140.4
L161.136 196.2" style="fill:#233390;"/>
    <path clip-path="url(#pf0d32d625f)" d="
M187.92 196.2
L214.704 196.2
L214.704 140.4
L187.92 140.4
L187.92 196.2" style="fill:#1d2e83;"/>
    <path clip-path="url(#pf0d32d625f)" d="
M214.704 196.2
L241.488 196.2
L241.488 140.4
L214.704 140.4
L214.704 196.2" style="fill:#1e2e85;"/>
    <path clip-path="url(#pf0d32d625f)" d="
M241.488 196.2
L268.272 196.2
L268.272 140.4
L241.488 140.4
L241.488 196.2" style="fill:#172978;"/>
    <path clip-path="url(#pf0d32d625f)" d="
M268.272 196.2
L295.056 196.2
L295.056 140.4
L268.272 140.4
L268.272 196.2" style="fill:#1c2d81;"/>
    <path clip-path="url(#pf0d32d625f)" d="
M295.056 196.2
L321.84 196.2
L321.84 140.4
L295.056 140.4
L295.056 196.2" style="fill:#172976;"/>
    <path clip-path="url(#pf0d32d625f)" d="
M54 140.4
L80.784 140.4
L80.784 84.6
L54 84.6
L54 140.4" style="fill:#f7fcc6;"/>
    <path clip-path="url(#pf0d32d625f)" d="
M80.784 140.4
L107.568 140.4
L107.568 84.6
L80.784 84.6
L80.784 140.4" style="fill:#e7f6b1;"/>
    <path clip-path="url(#pf0d32d625f)" d="
M107.568 140.4
L134.352 140.4
L134.352 84.6
L107.568 84.6
L107.568 140.4" style="fill:#ceecb3;"/>
    <path clip-path="url(#pf0d32d625f)" d="
M134.352 140.4
L161.136 140.4
L161.136 84.6
L134.352 84.6
L134.352 140.4" style="fill:#b9e4b5;"/>
    <path clip-path="url(#pf0d32d625f)" d="
M161.136 140.4
L187.92 140.4
L187.92 84.6
L161.136 84.6
L161.136 140.4" style="fill:#9cd8b8;"/>
    <path clip-path="url(#pf0d32d625f)" d="
M187.92 140.4
L214.704 140.4
L214.704 84.6
L187.92 84.6
L187.92 140.4" style="fill:#6dc6be;"/>
    <path clip-path="url(#pf0d32d625f)" d="
M214.704 140.4
L241.488 140.4
L241.488 84.6
L214.704 84.6
L214.704 140.4" style="fill:#46b8c3;"/>
    <path clip-path="url(#pf0d32d625f)" d="
M241.488 140.4
L268.272 140.4
L268.272 84.6
L241.488 84.6
L241.488 140.4" style="fill:#34a9c3;"/>
    <path clip-path="url(#pf0d32d625f)" d="
M268.272 140.4
L295.056 140.4
L295.056 84.6
L268.272 84.6
L268.272 140.4" style="fill:#299dc1;"/>
    <path clip-path="url(#pf0d32d625f)" d="
M295.056 140.4
L321.84 140.4
L321.84 84.6
L295.056 84.6
L295.056 140.4" style="fill:#42b6c4;"/>
    <path clip-path="url(#pf0d32d625f)" d="
M54 84.6
L80.784 84.6
L80.784 28.8
L54 28.8
L54 84.6" style="fill:#ffffd9;"/>
    <path clip-path="url(#pf0d32d625f)" d="
M80.784 84.6
L107.568 84.6
L107.568 28.8
L80.784 28.8
L80.784 84.6" style="fill:#f5fbc2;"/>
    <path clip-path="url(#pf0d32d625f)" d="
M107.568 84.6
L134.352 84.6
L134.352 28.8
L107.568 28.8
L107.568 84.6" style="fill:#f2fabc;"/>
    <path clip-path="url(#pf0d32d625f)" d="
M134.352 84.6
L161.136 84.6
L161.136 28.8
L134.352 28.8
L134.352 84.6" style="fill:#eff9b6;"/>
    <path clip-path="url(#pf0d32d625f)" d="
M161.136 84.6
L187.92 84.6
L187.92 28.8
L161.136 28.8
L161.136 84.6" style="fill:#cdebb4;"/>
    <path clip-path="url(#pf0d32d625f)" d="
M187.92 84.6
L214.704 84.6
L214.704 28.8
L187.92 28.8
L187.92 84.6" style="fill:#e7f6b1;"/>
    <path clip-path="url(#pf0d32d625f)" d="
M214.704 84.6
L241.488 84.6
L241.488 28.8
L214.704 28.8
L214.704 84.6" style="fill:#e5f5b2;"/>
    <path clip-path="url(#pf0d32d625f)" d="
M241.488 84.6
L268.272 84.6
L268.272 28.8
L241.488 28.8
L241.488 84.6" style="fill:#e2f4b2;"/>
    <path clip-path="url(#pf0d32d625f)" d="
M268.272 84.6
L295.056 84.6
L295.056 28.8
L268.272 28.8
L268.272 84.6" style="fill:#dcf1b2;"/>
    <path clip-path="url(#pf0d32d625f)" d="
M295.056 84.6
L321.84 84.6
L321.84 28.8
L295.056 28.8
L295.056 84.6" style="fill:#90d4b9;"/>
   </g>
  </g>
  <g id="axes_2">
   <g id="patch_3">
    <path clip-path="url(#p77a2406494)" d="
M338.58 252
L338.58 251.128
L338.58 29.6719
L338.58 28.8
L349.74 28.8
L349.74 29.6719
L349.74 251.128
L349.74 252
z
" style="fill:#eaeaf2;stroke:#eaeaf2;stroke-linejoin:miter;stroke-width:0.01;"/>
   </g>
   <g id="matplotlib.axis_3"/>
   <g id="matplotlib.axis_4">
    <g id="ytick_5">
     <g id="line2d_15">
      <g>
       <use style="fill:#262626;stroke:#262626;" x="349.74" xlink:href="#m219da94a98" y="232.316021751"/>
      </g>
     </g>
     <g id="text_17">
      <!-- 0.30 -->
      <defs>
       <path d="
M9.125 0
L9.125 10.6875
L18.6562 10.6875
L18.6562 0
z
" id="LiberationSans-2e"/>
      </defs>
      <g style="fill:#262626;" transform="translate(356.74 234.901959251)scale(0.1 -0.1)">
       <use xlink:href="#LiberationSans-30"/>
       <use x="55.615234375" xlink:href="#LiberationSans-2e"/>
       <use x="83.3984375" xlink:href="#LiberationSans-33"/>
       <use x="139.013671875" xlink:href="#LiberationSans-30"/>
      </g>
     </g>
    </g>
    <g id="ytick_6">
     <g id="line2d_16">
      <g>
       <use style="fill:#262626;stroke:#262626;" x="349.74" xlink:href="#m219da94a98" y="184.300336964"/>
      </g>
     </g>
     <g id="text_18">
      <!-- 0.45 -->
      <g style="fill:#262626;" transform="translate(356.74 186.886274464)scale(0.1 -0.1)">
       <use xlink:href="#LiberationSans-30"/>
       <use x="55.615234375" xlink:href="#LiberationSans-2e"/>
       <use x="83.3984375" xlink:href="#LiberationSans-34"/>
       <use x="139.013671875" xlink:href="#LiberationSans-35"/>
      </g>
     </g>
    </g>
    <g id="ytick_7">
     <g id="line2d_17">
      <g>
       <use style="fill:#262626;stroke:#262626;" x="349.74" xlink:href="#m219da94a98" y="136.284652178"/>
      </g>
     </g>
     <g id="text_19">
      <!-- 0.60 -->
      <g style="fill:#262626;" transform="translate(356.74 138.870589678)scale(0.1 -0.1)">
       <use xlink:href="#LiberationSans-30"/>
       <use x="55.615234375" xlink:href="#LiberationSans-2e"/>
       <use x="83.3984375" xlink:href="#LiberationSans-36"/>
       <use x="139.013671875" xlink:href="#LiberationSans-30"/>
      </g>
     </g>
    </g>
    <g id="ytick_8">
     <g id="line2d_18">
      <g>
       <use style="fill:#262626;stroke:#262626;" x="349.74" xlink:href="#m219da94a98" y="88.2689673916"/>
      </g>
     </g>
     <g id="text_20">
      <!-- 0.75 -->
      <g style="fill:#262626;" transform="translate(356.74 90.8549048916)scale(0.1 -0.1)">
       <use xlink:href="#LiberationSans-30"/>
       <use x="55.615234375" xlink:href="#LiberationSans-2e"/>
       <use x="83.3984375" xlink:href="#LiberationSans-37"/>
       <use x="139.013671875" xlink:href="#LiberationSans-35"/>
      </g>
     </g>
    </g>
    <g id="ytick_9">
     <g id="line2d_19">
      <g>
       <use style="fill:#262626;stroke:#262626;" x="349.74" xlink:href="#m219da94a98" y="40.2532826052"/>
      </g>
     </g>
     <g id="text_21">
      <!-- 0.90 -->
      <g style="fill:#262626;" transform="translate(356.74 42.8392201052)scale(0.1 -0.1)">
       <use xlink:href="#LiberationSans-30"/>
       <use x="55.615234375" xlink:href="#LiberationSans-2e"/>
       <use x="83.3984375" xlink:href="#LiberationSans-39"/>
       <use x="139.013671875" xlink:href="#LiberationSans-30"/>
      </g>
     </g>
    </g>
    <g id="text_22">
     <!-- Pass Rate -->
     <defs>
      <path d="
M13.4844 24.5625
Q13.4844 20.4062 14.3281 16.9062
Q15.1875 13.4219 16.9688 10.9062
Q18.75 8.40625 21.5312 7
Q24.3125 5.60938 28.2188 5.60938
Q33.9375 5.60938 37.375 7.90625
Q40.8281 10.2031 42.0469 13.7188
L49.75 11.5312
Q48.9219 9.32812 47.4375 7.10938
Q45.9531 4.89062 43.4531 3.09375
Q40.9688 1.3125 37.2344 0.15625
Q33.5 -0.984375 28.2188 -0.984375
Q16.5 -0.984375 10.375 6
Q4.25 12.9844 4.25 26.7656
Q4.25 34.1875 6.09375 39.3281
Q7.95312 44.4844 11.1719 47.7031
Q14.4062 50.9219 18.7031 52.3594
Q23 53.8125 27.875 53.8125
Q34.5156 53.8125 38.9844 51.6562
Q43.4531 49.5156 46.1562 45.7188
Q48.875 41.9375 50.0156 36.8125
Q51.1719 31.6875 51.1719 25.7344
L51.1719 24.5625
z

M42.0938 31.2969
Q41.3594 39.6562 37.8438 43.4844
Q34.3281 47.3125 27.7344 47.3125
Q25.5312 47.3125 23.1094 46.6094
Q20.7031 45.9062 18.6562 44.0938
Q16.6094 42.2812 15.1875 39.1719
Q13.7656 36.0781 13.5781 31.2969
z
" id="LiberationSans-65"/>
      <path d="
M56.8438 0
L38.9688 28.5625
L17.5312 28.5625
L17.5312 0
L8.20312 0
L8.20312 68.7969
L40.5781 68.7969
Q46.4375 68.7969 50.9531 67.4531
Q55.4688 66.1094 58.5469 63.5625
Q61.625 61.0312 63.2344 57.375
Q64.8438 53.7188 64.8438 49.125
Q64.8438 45.8438 63.8906 42.6719
Q62.9375 39.5 60.8906 36.8594
Q58.8438 34.2344 55.6562 32.3281
Q52.4844 30.4219 48.0469 29.6406
L67.5781 0
z

M55.4688 49.0312
Q55.4688 52.1562 54.3906 54.4375
Q53.3281 56.7344 51.2656 58.2656
Q49.2188 59.8125 46.2812 60.5625
Q43.3594 61.3281 39.6562 61.3281
L17.5312 61.3281
L17.5312 35.9375
L40.0469 35.9375
Q44.0469 35.9375 46.9688 36.9375
Q49.9062 37.9375 51.7812 39.6875
Q53.6562 41.4531 54.5625 43.8438
Q55.4688 46.2344 55.4688 49.0312" id="LiberationSans-52"/>
      <path d="
M61.4219 48.0938
Q61.4219 43.6094 59.9375 39.7188
Q58.4531 35.8438 55.5 32.9844
Q52.5469 30.125 48.0938 28.4688
Q43.6562 26.8125 37.75 26.8125
L17.5312 26.8125
L17.5312 0
L8.20312 0
L8.20312 68.7969
L37.1562 68.7969
Q43.2656 68.7969 47.7969 67.3125
Q52.3438 65.8281 55.375 63.1094
Q58.4062 60.4062 59.9062 56.5625
Q61.4219 52.7344 61.4219 48.0938
M52.0469 48
Q52.0469 54.5469 48.0469 57.9375
Q44.0469 61.3281 36.0312 61.3281
L17.5312 61.3281
L17.5312 34.1875
L36.4219 34.1875
Q44.4844 34.1875 48.2656 37.75
Q52.0469 41.3125 52.0469 48" id="LiberationSans-50"/>
      <path d="
M20.2188 -0.984375
Q12.25 -0.984375 8.25 3.21875
Q4.25 7.42188 4.25 14.75
Q4.25 19.9688 6.21875 23.3125
Q8.20312 26.6562 11.3906 28.5625
Q14.5938 30.4688 18.6875 31.2031
Q22.7969 31.9375 27.0469 32.0312
L38.9219 32.2344
L38.9219 35.1094
Q38.9219 38.375 38.2344 40.6719
Q37.5469 42.9688 36.125 44.375
Q34.7188 45.7969 32.5938 46.4531
Q30.4688 47.125 27.5938 47.125
Q25.0469 47.125 23 46.75
Q20.9531 46.3906 19.4375 45.4375
Q17.9219 44.4844 16.9844 42.8438
Q16.0625 41.2188 15.7656 38.7188
L6.59375 39.5469
Q7.07812 42.6719 8.4375 45.2812
Q9.8125 47.9062 12.3281 49.7969
Q14.8438 51.7031 18.625 52.75
Q22.4062 53.8125 27.7812 53.8125
Q37.75 53.8125 42.7656 49.2344
Q47.7969 44.6719 47.7969 36.0312
L47.7969 13.2812
Q47.7969 9.375 48.8281 7.39062
Q49.8594 5.42188 52.7344 5.42188
Q53.4688 5.42188 54.2031 5.51562
Q54.9375 5.60938 55.6094 5.76562
L55.6094 0.296875
Q53.9531 -0.09375 52.3125 -0.28125
Q50.6875 -0.484375 48.8281 -0.484375
Q46.3438 -0.484375 44.5625 0.171875
Q42.7812 0.828125 41.6562 2.17188
Q40.5312 3.51562 39.9375 5.48438
Q39.3594 7.46875 39.2031 10.1094
L38.9219 10.1094
Q37.5 7.5625 35.8125 5.51562
Q34.125 3.46875 31.875 2.03125
Q29.6406 0.59375 26.7812 -0.1875
Q23.9219 -0.984375 20.2188 -0.984375
M22.2188 5.60938
Q26.4219 5.60938 29.5625 7.14062
Q32.7188 8.6875 34.7812 11.0781
Q36.8594 13.4844 37.8906 16.3125
Q38.9219 19.1406 38.9219 21.7344
L38.9219 26.0781
L29.2969 25.875
Q26.0781 25.8281 23.1719 25.4062
Q20.2656 25 18.0625 23.7812
Q15.875 22.5625 14.5781 20.3594
Q13.2812 18.1719 13.2812 14.5938
Q13.2812 10.2969 15.5938 7.95312
Q17.9219 5.60938 22.2188 5.60938" id="LiberationSans-61"/>
     </defs>
     <g style="fill:#262626;" transform="translate(388.39125 165.528125)rotate(-90.0)scale(0.11 -0.11)">
      <use xlink:href="#LiberationSans-50"/>
      <use x="66.69921875" xlink:href="#LiberationSans-61"/>
      <use x="122.314453125" xlink:href="#LiberationSans-73"/>
      <use x="172.314453125" xlink:href="#LiberationSans-73"/>
      <use x="222.314453125" xlink:href="#LiberationSans-20"/>
      <use x="250.09765625" xlink:href="#LiberationSans-52"/>
      <use x="322.314453125" xlink:href="#LiberationSans-61"/>
      <use x="377.9296875" xlink:href="#LiberationSans-74"/>
      <use x="405.712890625" xlink:href="#LiberationSans-65"/>
     </g>
    </g>
   </g>
   <g id="QuadMesh_2">
    <path clip-path="url(#p77a2406494)" d="
M338.58 252
L349.74 252
L349.74 251.128
L338.58 251.128
L338.58 252" style="fill:#ffffd9;"/>
    <path clip-path="url(#p77a2406494)" d="
M338.58 251.128
L349.74 251.128
L349.74 250.256
L338.58 250.256
L338.58 251.128" style="fill:#feffd8;"/>
    <path clip-path="url(#p77a2406494)" d="
M338.58 250.256
L349.74 250.256
L349.74 249.384
L338.58 249.384
L338.58 250.256" style="fill:#feffd6;"/>
    <path clip-path="url(#p77a2406494)" d="
M338.58 249.384
L349.74 249.384
L349.74 248.513
L338.58 248.513
L338.58 249.384" style="fill:#fdfed5;"/>
    <path clip-path="url(#p77a2406494)" d="
M338.58 248.513
L349.74 248.513
L349.74 247.641
L338.58 247.641
L338.58 248.513" style="fill:#fdfed4;"/>
    <path clip-path="url(#p77a2406494)" d="
M338.58 247.641
L349.74 247.641
L349.74 246.769
L338.58 246.769
L338.58 247.641" style="fill:#fcfed3;"/>
    <path clip-path="url(#p77a2406494)" d="
M338.58 246.769
L349.74 246.769
L349.74 245.897
L338.58 245.897
L338.58 246.769" style="fill:#fcfed1;"/>
    <path clip-path="url(#p77a2406494)" d="
M338.58 245.897
L349.74 245.897
L349.74 245.025
L338.58 245.025
L338.58 245.897" style="fill:#fbfdd0;"/>
    <path clip-path="url(#p77a2406494)" d="
M338.58 245.025
L349.74 245.025
L349.74 244.153
L338.58 244.153
L338.58 245.025" style="fill:#fafdcf;"/>
    <path clip-path="url(#p77a2406494)" d="
M338.58 244.153
L349.74 244.153
L349.74 243.281
L338.58 243.281
L338.58 244.153" style="fill:#fafdce;"/>
    <path clip-path="url(#p77a2406494)" d="
M338.58 243.281
L349.74 243.281
L349.74 242.409
L338.58 242.409
L338.58 243.281" style="fill:#f9fdcc;"/>
    <path clip-path="url(#p77a2406494)" d="
M338.58 242.409
L349.74 242.409
L349.74 241.538
L338.58 241.538
L338.58 242.409" style="fill:#f9fdcb;"/>
    <path clip-path="url(#p77a2406494)" d="
M338.58 241.538
L349.74 241.538
L349.74 240.666
L338.58 240.666
L338.58 241.538" style="fill:#f8fcca;"/>
    <path clip-path="url(#p77a2406494)" d="
M338.58 240.666
L349.74 240.666
L349.74 239.794
L338.58 239.794
L338.58 240.666" style="fill:#f8fcc9;"/>
    <path clip-path="url(#p77a2406494)" d="
M338.58 239.794
L349.74 239.794
L349.74 238.922
L338.58 238.922
L338.58 239.794" style="fill:#f7fcc7;"/>
    <path clip-path="url(#p77a2406494)" d="
M338.58 238.922
L349.74 238.922
L349.74 238.05
L338.58 238.05
L338.58 238.922" style="fill:#f7fcc6;"/>
    <path clip-path="url(#p77a2406494)" d="
M338.58 238.05
L349.74 238.05
L349.74 237.178
L338.58 237.178
L338.58 238.05" style="fill:#f6fbc5;"/>
    <path clip-path="url(#p77a2406494)" d="
M338.58 237.178
L349.74 237.178
L349.74 236.306
L338.58 236.306
L338.58 237.178" style="fill:#f5fbc4;"/>
    <path clip-path="url(#p77a2406494)" d="
M338.58 236.306
L349.74 236.306
L349.74 235.434
L338.58 235.434
L338.58 236.306" style="fill:#f5fbc2;"/>
    <path clip-path="url(#p77a2406494)" d="
M338.58 235.434
L349.74 235.434
L349.74 234.563
L338.58 234.563
L338.58 235.434" style="fill:#f4fbc1;"/>
    <path clip-path="url(#p77a2406494)" d="
M338.58 234.563
L349.74 234.563
L349.74 233.691
L338.58 233.691
L338.58 234.563" style="fill:#f4fbc0;"/>
    <path clip-path="url(#p77a2406494)" d="
M338.58 233.691
L349.74 233.691
L349.74 232.819
L338.58 232.819
L338.58 233.691" style="fill:#f3fabf;"/>
    <path clip-path="url(#p77a2406494)" d="
M338.58 232.819
L349.74 232.819
L349.74 231.947
L338.58 231.947
L338.58 232.819" style="fill:#f3fabd;"/>
    <path clip-path="url(#p77a2406494)" d="
M338.58 231.947
L349.74 231.947
L349.74 231.075
L338.58 231.075
L338.58 231.947" style="fill:#f2fabc;"/>
    <path clip-path="url(#p77a2406494)" d="
M338.58 231.075
L349.74 231.075
L349.74 230.203
L338.58 230.203
L338.58 231.075" style="fill:#f1fabb;"/>
    <path clip-path="url(#p77a2406494)" d="
M338.58 230.203
L349.74 230.203
L349.74 229.331
L338.58 229.331
L338.58 230.203" style="fill:#f1faba;"/>
    <path clip-path="url(#p77a2406494)" d="
M338.58 229.331
L349.74 229.331
L349.74 228.459
L338.58 228.459
L338.58 229.331" style="fill:#f0f9b8;"/>
    <path clip-path="url(#p77a2406494)" d="
M338.58 228.459
L349.74 228.459
L349.74 227.588
L338.58 227.588
L338.58 228.459" style="fill:#f0f9b7;"/>
    <path clip-path="url(#p77a2406494)" d="
M338.58 227.588
L349.74 227.588
L349.74 226.716
L338.58 226.716
L338.58 227.588" style="fill:#eff9b6;"/>
    <path clip-path="url(#p77a2406494)" d="
M338.58 226.716
L349.74 226.716
L349.74 225.844
L338.58 225.844
L338.58 226.716" style="fill:#eff9b5;"/>
    <path clip-path="url(#p77a2406494)" d="
M338.58 225.844
L349.74 225.844
L349.74 224.972
L338.58 224.972
L338.58 225.844" style="fill:#eef8b3;"/>
    <path clip-path="url(#p77a2406494)" d="
M338.58 224.972
L349.74 224.972
L349.74 224.1
L338.58 224.1
L338.58 224.972" style="fill:#edf8b2;"/>
    <path clip-path="url(#p77a2406494)" d="
M338.58 224.1
L349.74 224.1
L349.74 223.228
L338.58 223.228
L338.58 224.1" style="fill:#edf8b1;"/>
    <path clip-path="url(#p77a2406494)" d="
M338.58 223.228
L349.74 223.228
L349.74 222.356
L338.58 222.356
L338.58 223.228" style="fill:#ecf7b1;"/>
    <path clip-path="url(#p77a2406494)" d="
M338.58 222.356
L349.74 222.356
L349.74 221.484
L338.58 221.484
L338.58 222.356" style="fill:#eaf7b1;"/>
    <path clip-path="url(#p77a2406494)" d="
M338.58 221.484
L349.74 221.484
L349.74 220.613
L338.58 220.613
L338.58 221.484" style="fill:#e9f7b1;"/>
    <path clip-path="url(#p77a2406494)" d="
M338.58 220.613
L349.74 220.613
L349.74 219.741
L338.58 219.741
L338.58 220.613" style="fill:#e8f6b1;"/>
    <path clip-path="url(#p77a2406494)" d="
M338.58 219.741
L349.74 219.741
L349.74 218.869
L338.58 218.869
L338.58 219.741" style="fill:#e7f6b1;"/>
    <path clip-path="url(#p77a2406494)" d="
M338.58 218.869
L349.74 218.869
L349.74 217.997
L338.58 217.997
L338.58 218.869" style="fill:#e6f5b2;"/>
    <path clip-path="url(#p77a2406494)" d="
M338.58 217.997
L349.74 217.997
L349.74 217.125
L338.58 217.125
L338.58 217.997" style="fill:#e5f5b2;"/>
    <path clip-path="url(#p77a2406494)" d="
M338.58 217.125
L349.74 217.125
L349.74 216.253
L338.58 216.253
L338.58 217.125" style="fill:#e3f4b2;"/>
    <path clip-path="url(#p77a2406494)" d="
M338.58 216.253
L349.74 216.253
L349.74 215.381
L338.58 215.381
L338.58 216.253" style="fill:#e2f4b2;"/>
    <path clip-path="url(#p77a2406494)" d="
M338.58 215.381
L349.74 215.381
L349.74 214.509
L338.58 214.509
L338.58 215.381" style="fill:#e1f3b2;"/>
    <path clip-path="url(#p77a2406494)" d="
M338.58 214.509
L349.74 214.509
L349.74 213.638
L338.58 213.638
L338.58 214.509" style="fill:#e0f3b2;"/>
    <path clip-path="url(#p77a2406494)" d="
M338.58 213.638
L349.74 213.638
L349.74 212.766
L338.58 212.766
L338.58 213.638" style="fill:#dff2b2;"/>
    <path clip-path="url(#p77a2406494)" d="
M338.58 212.766
L349.74 212.766
L349.74 211.894
L338.58 211.894
L338.58 212.766" style="fill:#ddf2b2;"/>
    <path clip-path="url(#p77a2406494)" d="
M338.58 211.894
L349.74 211.894
L349.74 211.022
L338.58 211.022
L338.58 211.894" style="fill:#dcf1b2;"/>
    <path clip-path="url(#p77a2406494)" d="
M338.58 211.022
L349.74 211.022
L349.74 210.15
L338.58 210.15
L338.58 211.022" style="fill:#dbf1b2;"/>
    <path clip-path="url(#p77a2406494)" d="
M338.58 210.15
L349.74 210.15
L349.74 209.278
L338.58 209.278
L338.58 210.15" style="fill:#daf0b3;"/>
    <path clip-path="url(#p77a2406494)" d="
M338.58 209.278
L349.74 209.278
L349.74 208.406
L338.58 208.406
L338.58 209.278" style="fill:#d9f0b3;"/>
    <path clip-path="url(#p77a2406494)" d="
M338.58 208.406
L349.74 208.406
L349.74 207.534
L338.58 207.534
L338.58 208.406" style="fill:#d7efb3;"/>
    <path clip-path="url(#p77a2406494)" d="
M338.58 207.534
L349.74 207.534
L349.74 206.663
L338.58 206.663
L338.58 207.534" style="fill:#d6efb3;"/>
    <path clip-path="url(#p77a2406494)" d="
M338.58 206.663
L349.74 206.663
L349.74 205.791
L338.58 205.791
L338.58 206.663" style="fill:#d5efb3;"/>
    <path clip-path="url(#p77a2406494)" d="
M338.58 205.791
L349.74 205.791
L349.74 204.919
L338.58 204.919
L338.58 205.791" style="fill:#d4eeb3;"/>
    <path clip-path="url(#p77a2406494)" d="
M338.58 204.919
L349.74 204.919
L349.74 204.047
L338.58 204.047
L338.58 204.919" style="fill:#d3eeb3;"/>
    <path clip-path="url(#p77a2406494)" d="
M338.58 204.047
L349.74 204.047
L349.74 203.175
L338.58 203.175
L338.58 204.047" style="fill:#d1edb3;"/>
    <path clip-path="url(#p77a2406494)" d="
M338.58 203.175
L349.74 203.175
L349.74 202.303
L338.58 202.303
L338.58 203.175" style="fill:#d0edb3;"/>
    <path clip-path="url(#p77a2406494)" d="
M338.58 202.303
L349.74 202.303
L349.74 201.431
L338.58 201.431
L338.58 202.303" style="fill:#cfecb3;"/>
    <path clip-path="url(#p77a2406494)" d="
M338.58 201.431
L349.74 201.431
L349.74 200.559
L338.58 200.559
L338.58 201.431" style="fill:#ceecb3;"/>
    <path clip-path="url(#p77a2406494)" d="
M338.58 200.559
L349.74 200.559
L349.74 199.688
L338.58 199.688
L338.58 200.559" style="fill:#cdebb4;"/>
    <path clip-path="url(#p77a2406494)" d="
M338.58 199.688
L349.74 199.688
L349.74 198.816
L338.58 198.816
L338.58 199.688" style="fill:#cbebb4;"/>
    <path clip-path="url(#p77a2406494)" d="
M338.58 198.816
L349.74 198.816
L349.74 197.944
L338.58 197.944
L338.58 198.816" style="fill:#caeab4;"/>
    <path clip-path="url(#p77a2406494)" d="
M338.58 197.944
L349.74 197.944
L349.74 197.072
L338.58 197.072
L338.58 197.944" style="fill:#c9eab4;"/>
    <path clip-path="url(#p77a2406494)" d="
M338.58 197.072
L349.74 197.072
L349.74 196.2
L338.58 196.2
L338.58 197.072" style="fill:#c8e9b4;"/>
    <path clip-path="url(#p77a2406494)" d="
M338.58 196.2
L349.74 196.2
L349.74 195.328
L338.58 195.328
L338.58 196.2" style="fill:#c6e9b4;"/>
    <path clip-path="url(#p77a2406494)" d="
M338.58 195.328
L349.74 195.328
L349.74 194.456
L338.58 194.456
L338.58 195.328" style="fill:#c4e8b4;"/>
    <path clip-path="url(#p77a2406494)" d="
M338.58 194.456
L349.74 194.456
L349.74 193.584
L338.58 193.584
L338.58 194.456" style="fill:#c2e7b4;"/>
    <path clip-path="url(#p77a2406494)" d="
M338.58 193.584
L349.74 193.584
L349.74 192.713
L338.58 192.713
L338.58 193.584" style="fill:#c0e6b5;"/>
    <path clip-path="url(#p77a2406494)" d="
M338.58 192.713
L349.74 192.713
L349.74 191.841
L338.58 191.841
L338.58 192.713" style="fill:#bde5b5;"/>
    <path clip-path="url(#p77a2406494)" d="
M338.58 191.841
L349.74 191.841
L349.74 190.969
L338.58 190.969
L338.58 191.841" style="fill:#bbe4b5;"/>
    <path clip-path="url(#p77a2406494)" d="
M338.58 190.969
L349.74 190.969
L349.74 190.097
L338.58 190.097
L338.58 190.969" style="fill:#b9e4b5;"/>
    <path clip-path="url(#p77a2406494)" d="
M338.58 190.097
L349.74 190.097
L349.74 189.225
L338.58 189.225
L338.58 190.097" style="fill:#b7e3b6;"/>
    <path clip-path="url(#p77a2406494)" d="
M338.58 189.225
L349.74 189.225
L349.74 188.353
L338.58 188.353
L338.58 189.225" style="fill:#b4e2b6;"/>
    <path clip-path="url(#p77a2406494)" d="
M338.58 188.353
L349.74 188.353
L349.74 187.481
L338.58 187.481
L338.58 188.353" style="fill:#b2e1b6;"/>
    <path clip-path="url(#p77a2406494)" d="
M338.58 187.481
L349.74 187.481
L349.74 186.609
L338.58 186.609
L338.58 187.481" style="fill:#b0e0b6;"/>
    <path clip-path="url(#p77a2406494)" d="
M338.58 186.609
L349.74 186.609
L349.74 185.738
L338.58 185.738
L338.58 186.609" style="fill:#aedfb6;"/>
    <path clip-path="url(#p77a2406494)" d="
M338.58 185.738
L349.74 185.738
L349.74 184.866
L338.58 184.866
L338.58 185.738" style="fill:#abdeb7;"/>
    <path clip-path="url(#p77a2406494)" d="
M338.58 184.866
L349.74 184.866
L349.74 183.994
L338.58 183.994
L338.58 184.866" style="fill:#a9ddb7;"/>
    <path clip-path="url(#p77a2406494)" d="
M338.58 183.994
L349.74 183.994
L349.74 183.122
L338.58 183.122
L338.58 183.994" style="fill:#a7dcb7;"/>
    <path clip-path="url(#p77a2406494)" d="
M338.58 183.122
L349.74 183.122
L349.74 182.25
L338.58 182.25
L338.58 183.122" style="fill:#a5dcb7;"/>
    <path clip-path="url(#p77a2406494)" d="
M338.58 182.25
L349.74 182.25
L349.74 181.378
L338.58 181.378
L338.58 182.25" style="fill:#a2dbb8;"/>
    <path clip-path="url(#p77a2406494)" d="
M338.58 181.378
L349.74 181.378
L349.74 180.506
L338.58 180.506
L338.58 181.378" style="fill:#a0dab8;"/>
    <path clip-path="url(#p77a2406494)" d="
M338.58 180.506
L349.74 180.506
L349.74 179.634
L338.58 179.634
L338.58 180.506" style="fill:#9ed9b8;"/>
    <path clip-path="url(#p77a2406494)" d="
M338.58 179.634
L349.74 179.634
L349.74 178.763
L338.58 178.763
L338.58 179.634" style="fill:#9cd8b8;"/>
    <path clip-path="url(#p77a2406494)" d="
M338.58 178.763
L349.74 178.763
L349.74 177.891
L338.58 177.891
L338.58 178.763" style="fill:#99d7b8;"/>
    <path clip-path="url(#p77a2406494)" d="
M338.58 177.891
L349.74 177.891
L349.74 177.019
L338.58 177.019
L338.58 177.891" style="fill:#97d6b9;"/>
    <path clip-path="url(#p77a2406494)" d="
M338.58 177.019
L349.74 177.019
L349.74 176.147
L338.58 176.147
L338.58 177.019" style="fill:#95d5b9;"/>
    <path clip-path="url(#p77a2406494)" d="
M338.58 176.147
L349.74 176.147
L349.74 175.275
L338.58 175.275
L338.58 176.147" style="fill:#92d5b9;"/>
    <path clip-path="url(#p77a2406494)" d="
M338.58 175.275
L349.74 175.275
L349.74 174.403
L338.58 174.403
L338.58 175.275" style="fill:#90d4b9;"/>
    <path clip-path="url(#p77a2406494)" d="
M338.58 174.403
L349.74 174.403
L349.74 173.531
L338.58 173.531
L338.58 174.403" style="fill:#8ed3ba;"/>
    <path clip-path="url(#p77a2406494)" d="
M338.58 173.531
L349.74 173.531
L349.74 172.659
L338.58 172.659
L338.58 173.531" style="fill:#8cd2ba;"/>
    <path clip-path="url(#p77a2406494)" d="
M338.58 172.659
L349.74 172.659
L349.74 171.788
L338.58 171.788
L338.58 172.659" style="fill:#89d1ba;"/>
    <path clip-path="url(#p77a2406494)" d="
M338.58 171.788
L349.74 171.788
L349.74 170.916
L338.58 170.916
L338.58 171.788" style="fill:#87d0ba;"/>
    <path clip-path="url(#p77a2406494)" d="
M338.58 170.916
L349.74 170.916
L349.74 170.044
L338.58 170.044
L338.58 170.916" style="fill:#85cfba;"/>
    <path clip-path="url(#p77a2406494)" d="
M338.58 170.044
L349.74 170.044
L349.74 169.172
L338.58 169.172
L338.58 170.044" style="fill:#83cebb;"/>
    <path clip-path="url(#p77a2406494)" d="
M338.58 169.172
L349.74 169.172
L349.74 168.3
L338.58 168.3
L338.58 169.172" style="fill:#80cebb;"/>
    <path clip-path="url(#p77a2406494)" d="
M338.58 168.3
L349.74 168.3
L349.74 167.428
L338.58 167.428
L338.58 168.3" style="fill:#7ecdbb;"/>
    <path clip-path="url(#p77a2406494)" d="
M338.58 167.428
L349.74 167.428
L349.74 166.556
L338.58 166.556
L338.58 167.428" style="fill:#7cccbb;"/>
    <path clip-path="url(#p77a2406494)" d="
M338.58 166.556
L349.74 166.556
L349.74 165.684
L338.58 165.684
L338.58 166.556" style="fill:#7acbbc;"/>
    <path clip-path="url(#p77a2406494)" d="
M338.58 165.684
L349.74 165.684
L349.74 164.813
L338.58 164.813
L338.58 165.684" style="fill:#78cbbc;"/>
    <path clip-path="url(#p77a2406494)" d="
M338.58 164.813
L349.74 164.813
L349.74 163.941
L338.58 163.941
L338.58 164.813" style="fill:#76cabc;"/>
    <path clip-path="url(#p77a2406494)" d="
M338.58 163.941
L349.74 163.941
L349.74 163.069
L338.58 163.069
L338.58 163.941" style="fill:#75c9bd;"/>
    <path clip-path="url(#p77a2406494)" d="
M338.58 163.069
L349.74 163.069
L349.74 162.197
L338.58 162.197
L338.58 163.069" style="fill:#73c8bd;"/>
    <path clip-path="url(#p77a2406494)" d="
M338.58 162.197
L349.74 162.197
L349.74 161.325
L338.58 161.325
L338.58 162.197" style="fill:#71c8bd;"/>
    <path clip-path="url(#p77a2406494)" d="
M338.58 161.325
L349.74 161.325
L349.74 160.453
L338.58 160.453
L338.58 161.325" style="fill:#6fc7bd;"/>
    <path clip-path="url(#p77a2406494)" d="
M338.58 160.453
L349.74 160.453
L349.74 159.581
L338.58 159.581
L338.58 160.453" style="fill:#6dc6be;"/>
    <path clip-path="url(#p77a2406494)" d="
M338.58 159.581
L349.74 159.581
L349.74 158.709
L338.58 158.709
L338.58 159.581" style="fill:#6bc6be;"/>
    <path clip-path="url(#p77a2406494)" d="
M338.58 158.709
L349.74 158.709
L349.74 157.838
L338.58 157.838
L338.58 158.709" style="fill:#69c5be;"/>
    <path clip-path="url(#p77a2406494)" d="
M338.58 157.838
L349.74 157.838
L349.74 156.966
L338.58 156.966
L338.58 157.838" style="fill:#67c4be;"/>
    <path clip-path="url(#p77a2406494)" d="
M338.58 156.966
L349.74 156.966
L349.74 156.094
L338.58 156.094
L338.58 156.966" style="fill:#65c3bf;"/>
    <path clip-path="url(#p77a2406494)" d="
M338.58 156.094
L349.74 156.094
L349.74 155.222
L338.58 155.222
L338.58 156.094" style="fill:#63c3bf;"/>
    <path clip-path="url(#p77a2406494)" d="
M338.58 155.222
L349.74 155.222
L349.74 154.35
L338.58 154.35
L338.58 155.222" style="fill:#61c2bf;"/>
    <path clip-path="url(#p77a2406494)" d="
M338.58 154.35
L349.74 154.35
L349.74 153.478
L338.58 153.478
L338.58 154.35" style="fill:#5fc1c0;"/>
    <path clip-path="url(#p77a2406494)" d="
M338.58 153.478
L349.74 153.478
L349.74 152.606
L338.58 152.606
L338.58 153.478" style="fill:#5dc0c0;"/>
    <path clip-path="url(#p77a2406494)" d="
M338.58 152.606
L349.74 152.606
L349.74 151.734
L338.58 151.734
L338.58 152.606" style="fill:#5bc0c0;"/>
    <path clip-path="url(#p77a2406494)" d="
M338.58 151.734
L349.74 151.734
L349.74 150.863
L338.58 150.863
L338.58 151.734" style="fill:#59bfc0;"/>
    <path clip-path="url(#p77a2406494)" d="
M338.58 150.863
L349.74 150.863
L349.74 149.991
L338.58 149.991
L338.58 150.863" style="fill:#57bec1;"/>
    <path clip-path="url(#p77a2406494)" d="
M338.58 149.991
L349.74 149.991
L349.74 149.119
L338.58 149.119
L338.58 149.991" style="fill:#55bec1;"/>
    <path clip-path="url(#p77a2406494)" d="
M338.58 149.119
L349.74 149.119
L349.74 148.247
L338.58 148.247
L338.58 149.119" style="fill:#53bdc1;"/>
    <path clip-path="url(#p77a2406494)" d="
M338.58 148.247
L349.74 148.247
L349.74 147.375
L338.58 147.375
L338.58 148.247" style="fill:#52bcc2;"/>
    <path clip-path="url(#p77a2406494)" d="
M338.58 147.375
L349.74 147.375
L349.74 146.503
L338.58 146.503
L338.58 147.375" style="fill:#50bbc2;"/>
    <path clip-path="url(#p77a2406494)" d="
M338.58 146.503
L349.74 146.503
L349.74 145.631
L338.58 145.631
L338.58 146.503" style="fill:#4ebbc2;"/>
    <path clip-path="url(#p77a2406494)" d="
M338.58 145.631
L349.74 145.631
L349.74 144.759
L338.58 144.759
L338.58 145.631" style="fill:#4cbac2;"/>
    <path clip-path="url(#p77a2406494)" d="
M338.58 144.759
L349.74 144.759
L349.74 143.888
L338.58 143.888
L338.58 144.759" style="fill:#4ab9c3;"/>
    <path clip-path="url(#p77a2406494)" d="
M338.58 143.888
L349.74 143.888
L349.74 143.016
L338.58 143.016
L338.58 143.888" style="fill:#48b9c3;"/>
    <path clip-path="url(#p77a2406494)" d="
M338.58 143.016
L349.74 143.016
L349.74 142.144
L338.58 142.144
L338.58 143.016" style="fill:#46b8c3;"/>
    <path clip-path="url(#p77a2406494)" d="
M338.58 142.144
L349.74 142.144
L349.74 141.272
L338.58 141.272
L338.58 142.144" style="fill:#44b7c4;"/>
    <path clip-path="url(#p77a2406494)" d="
M338.58 141.272
L349.74 141.272
L349.74 140.4
L338.58 140.4
L338.58 141.272" style="fill:#42b6c4;"/>
    <path clip-path="url(#p77a2406494)" d="
M338.58 140.4
L349.74 140.4
L349.74 139.528
L338.58 139.528
L338.58 140.4" style="fill:#40b5c4;"/>
    <path clip-path="url(#p77a2406494)" d="
M338.58 139.528
L349.74 139.528
L349.74 138.656
L338.58 138.656
L338.58 139.528" style="fill:#3fb4c4;"/>
    <path clip-path="url(#p77a2406494)" d="
M338.58 138.656
L349.74 138.656
L349.74 137.784
L338.58 137.784
L338.58 138.656" style="fill:#3eb3c4;"/>
    <path clip-path="url(#p77a2406494)" d="
M338.58 137.784
L349.74 137.784
L349.74 136.913
L338.58 136.913
L338.58 137.784" style="fill:#3db2c4;"/>
    <path clip-path="url(#p77a2406494)" d="
M338.58 136.913
L349.74 136.913
L349.74 136.041
L338.58 136.041
L338.58 136.913" style="fill:#3cb1c3;"/>
    <path clip-path="url(#p77a2406494)" d="
M338.58 136.041
L349.74 136.041
L349.74 135.169
L338.58 135.169
L338.58 136.041" style="fill:#3bb0c3;"/>
    <path clip-path="url(#p77a2406494)" d="
M338.58 135.169
L349.74 135.169
L349.74 134.297
L338.58 134.297
L338.58 135.169" style="fill:#3aaec3;"/>
    <path clip-path="url(#p77a2406494)" d="
M338.58 134.297
L349.74 134.297
L349.74 133.425
L338.58 133.425
L338.58 134.297" style="fill:#39adc3;"/>
    <path clip-path="url(#p77a2406494)" d="
M338.58 133.425
L349.74 133.425
L349.74 132.553
L338.58 132.553
L338.58 133.425" style="fill:#37acc3;"/>
    <path clip-path="url(#p77a2406494)" d="
M338.58 132.553
L349.74 132.553
L349.74 131.681
L338.58 131.681
L338.58 132.553" style="fill:#36abc3;"/>
    <path clip-path="url(#p77a2406494)" d="
M338.58 131.681
L349.74 131.681
L349.74 130.809
L338.58 130.809
L338.58 131.681" style="fill:#35aac3;"/>
    <path clip-path="url(#p77a2406494)" d="
M338.58 130.809
L349.74 130.809
L349.74 129.938
L338.58 129.938
L338.58 130.809" style="fill:#34a9c3;"/>
    <path clip-path="url(#p77a2406494)" d="
M338.58 129.938
L349.74 129.938
L349.74 129.066
L338.58 129.066
L338.58 129.938" style="fill:#33a7c2;"/>
    <path clip-path="url(#p77a2406494)" d="
M338.58 129.066
L349.74 129.066
L349.74 128.194
L338.58 128.194
L338.58 129.066" style="fill:#32a6c2;"/>
    <path clip-path="url(#p77a2406494)" d="
M338.58 128.194
L349.74 128.194
L349.74 127.322
L338.58 127.322
L338.58 128.194" style="fill:#31a5c2;"/>
    <path clip-path="url(#p77a2406494)" d="
M338.58 127.322
L349.74 127.322
L349.74 126.45
L338.58 126.45
L338.58 127.322" style="fill:#2fa4c2;"/>
    <path clip-path="url(#p77a2406494)" d="
M338.58 126.45
L349.74 126.45
L349.74 125.578
L338.58 125.578
L338.58 126.45" style="fill:#2ea3c2;"/>
    <path clip-path="url(#p77a2406494)" d="
M338.58 125.578
L349.74 125.578
L349.74 124.706
L338.58 124.706
L338.58 125.578" style="fill:#2da2c2;"/>
    <path clip-path="url(#p77a2406494)" d="
M338.58 124.706
L349.74 124.706
L349.74 123.834
L338.58 123.834
L338.58 124.706" style="fill:#2ca1c2;"/>
    <path clip-path="url(#p77a2406494)" d="
M338.58 123.834
L349.74 123.834
L349.74 122.963
L338.58 122.963
L338.58 123.834" style="fill:#2b9fc2;"/>
    <path clip-path="url(#p77a2406494)" d="
M338.58 122.963
L349.74 122.963
L349.74 122.091
L338.58 122.091
L338.58 122.963" style="fill:#2a9ec1;"/>
    <path clip-path="url(#p77a2406494)" d="
M338.58 122.091
L349.74 122.091
L349.74 121.219
L338.58 121.219
L338.58 122.091" style="fill:#299dc1;"/>
    <path clip-path="url(#p77a2406494)" d="
M338.58 121.219
L349.74 121.219
L349.74 120.347
L338.58 120.347
L338.58 121.219" style="fill:#289cc1;"/>
    <path clip-path="url(#p77a2406494)" d="
M338.58 120.347
L349.74 120.347
L349.74 119.475
L338.58 119.475
L338.58 120.347" style="fill:#269bc1;"/>
    <path clip-path="url(#p77a2406494)" d="
M338.58 119.475
L349.74 119.475
L349.74 118.603
L338.58 118.603
L338.58 119.475" style="fill:#259ac1;"/>
    <path clip-path="url(#p77a2406494)" d="
M338.58 118.603
L349.74 118.603
L349.74 117.731
L338.58 117.731
L338.58 118.603" style="fill:#2498c1;"/>
    <path clip-path="url(#p77a2406494)" d="
M338.58 117.731
L349.74 117.731
L349.74 116.859
L338.58 116.859
L338.58 117.731" style="fill:#2397c1;"/>
    <path clip-path="url(#p77a2406494)" d="
M338.58 116.859
L349.74 116.859
L349.74 115.988
L338.58 115.988
L338.58 116.859" style="fill:#2296c1;"/>
    <path clip-path="url(#p77a2406494)" d="
M338.58 115.988
L349.74 115.988
L349.74 115.116
L338.58 115.116
L338.58 115.988" style="fill:#2195c0;"/>
    <path clip-path="url(#p77a2406494)" d="
M338.58 115.116
L349.74 115.116
L349.74 114.244
L338.58 114.244
L338.58 115.116" style="fill:#2094c0;"/>
    <path clip-path="url(#p77a2406494)" d="
M338.58 114.244
L349.74 114.244
L349.74 113.372
L338.58 113.372
L338.58 114.244" style="fill:#1f93c0;"/>
    <path clip-path="url(#p77a2406494)" d="
M338.58 113.372
L349.74 113.372
L349.74 112.5
L338.58 112.5
L338.58 113.372" style="fill:#1d91c0;"/>
    <path clip-path="url(#p77a2406494)" d="
M338.58 112.5
L349.74 112.5
L349.74 111.628
L338.58 111.628
L338.58 112.5" style="fill:#1d90c0;"/>
    <path clip-path="url(#p77a2406494)" d="
M338.58 111.628
L349.74 111.628
L349.74 110.756
L338.58 110.756
L338.58 111.628" style="fill:#1d8ebf;"/>
    <path clip-path="url(#p77a2406494)" d="
M338.58 110.756
L349.74 110.756
L349.74 109.884
L338.58 109.884
L338.58 110.756" style="fill:#1d8dbe;"/>
    <path clip-path="url(#p77a2406494)" d="
M338.58 109.884
L349.74 109.884
L349.74 109.013
L338.58 109.013
L338.58 109.884" style="fill:#1e8bbd;"/>
    <path clip-path="url(#p77a2406494)" d="
M338.58 109.013
L349.74 109.013
L349.74 108.141
L338.58 108.141
L338.58 109.013" style="fill:#1e8abd;"/>
    <path clip-path="url(#p77a2406494)" d="
M338.58 108.141
L349.74 108.141
L349.74 107.269
L338.58 107.269
L338.58 108.141" style="fill:#1e88bc;"/>
    <path clip-path="url(#p77a2406494)" d="
M338.58 107.269
L349.74 107.269
L349.74 106.397
L338.58 106.397
L338.58 107.269" style="fill:#1e86bb;"/>
    <path clip-path="url(#p77a2406494)" d="
M338.58 106.397
L349.74 106.397
L349.74 105.525
L338.58 105.525
L338.58 106.397" style="fill:#1e85ba;"/>
    <path clip-path="url(#p77a2406494)" d="
M338.58 105.525
L349.74 105.525
L349.74 104.653
L338.58 104.653
L338.58 105.525" style="fill:#1e83ba;"/>
    <path clip-path="url(#p77a2406494)" d="
M338.58 104.653
L349.74 104.653
L349.74 103.781
L338.58 103.781
L338.58 104.653" style="fill:#1f82b9;"/>
    <path clip-path="url(#p77a2406494)" d="
M338.58 103.781
L349.74 103.781
L349.74 102.909
L338.58 102.909
L338.58 103.781" style="fill:#1f80b8;"/>
    <path clip-path="url(#p77a2406494)" d="
M338.58 102.909
L349.74 102.909
L349.74 102.038
L338.58 102.038
L338.58 102.909" style="fill:#1f7eb7;"/>
    <path clip-path="url(#p77a2406494)" d="
M338.58 102.038
L349.74 102.038
L349.74 101.166
L338.58 101.166
L338.58 102.038" style="fill:#1f7db6;"/>
    <path clip-path="url(#p77a2406494)" d="
M338.58 101.166
L349.74 101.166
L349.74 100.294
L338.58 100.294
L338.58 101.166" style="fill:#1f7bb6;"/>
    <path clip-path="url(#p77a2406494)" d="
M338.58 100.294
L349.74 100.294
L349.74 99.4219
L338.58 99.4219
L338.58 100.294" style="fill:#1f7ab5;"/>
    <path clip-path="url(#p77a2406494)" d="
M338.58 99.4219
L349.74 99.4219
L349.74 98.55
L338.58 98.55
L338.58 99.4219" style="fill:#1f78b4;"/>
    <path clip-path="url(#p77a2406494)" d="
M338.58 98.55
L349.74 98.55
L349.74 97.6781
L338.58 97.6781
L338.58 98.55" style="fill:#2076b3;"/>
    <path clip-path="url(#p77a2406494)" d="
M338.58 97.6781
L349.74 97.6781
L349.74 96.8063
L338.58 96.8063
L338.58 97.6781" style="fill:#2075b3;"/>
    <path clip-path="url(#p77a2406494)" d="
M338.58 96.8063
L349.74 96.8063
L349.74 95.9344
L338.58 95.9344
L338.58 96.8063" style="fill:#2073b2;"/>
    <path clip-path="url(#p77a2406494)" d="
M338.58 95.9344
L349.74 95.9344
L349.74 95.0625
L338.58 95.0625
L338.58 95.9344" style="fill:#2072b1;"/>
    <path clip-path="url(#p77a2406494)" d="
M338.58 95.0625
L349.74 95.0625
L349.74 94.1906
L338.58 94.1906
L338.58 95.0625" style="fill:#2070b0;"/>
    <path clip-path="url(#p77a2406494)" d="
M338.58 94.1906
L349.74 94.1906
L349.74 93.3188
L338.58 93.3188
L338.58 94.1906" style="fill:#206eb0;"/>
    <path clip-path="url(#p77a2406494)" d="
M338.58 93.3188
L349.74 93.3188
L349.74 92.4469
L338.58 92.4469
L338.58 93.3188" style="fill:#216daf;"/>
    <path clip-path="url(#p77a2406494)" d="
M338.58 92.4469
L349.74 92.4469
L349.74 91.575
L338.58 91.575
L338.58 92.4469" style="fill:#216bae;"/>
    <path clip-path="url(#p77a2406494)" d="
M338.58 91.575
L349.74 91.575
L349.74 90.7031
L338.58 90.7031
L338.58 91.575" style="fill:#216aad;"/>
    <path clip-path="url(#p77a2406494)" d="
M338.58 90.7031
L349.74 90.7031
L349.74 89.8313
L338.58 89.8313
L338.58 90.7031" style="fill:#2168ad;"/>
    <path clip-path="url(#p77a2406494)" d="
M338.58 89.8313
L349.74 89.8313
L349.74 88.9594
L338.58 88.9594
L338.58 89.8313" style="fill:#2166ac;"/>
    <path clip-path="url(#p77a2406494)" d="
M338.58 88.9594
L349.74 88.9594
L349.74 88.0875
L338.58 88.0875
L338.58 88.9594" style="fill:#2165ab;"/>
    <path clip-path="url(#p77a2406494)" d="
M338.58 88.0875
L349.74 88.0875
L349.74 87.2156
L338.58 87.2156
L338.58 88.0875" style="fill:#2163aa;"/>
    <path clip-path="url(#p77a2406494)" d="
M338.58 87.2156
L349.74 87.2156
L349.74 86.3438
L338.58 86.3438
L338.58 87.2156" style="fill:#2262aa;"/>
    <path clip-path="url(#p77a2406494)" d="
M338.58 86.3438
L349.74 86.3438
L349.74 85.4719
L338.58 85.4719
L338.58 86.3438" style="fill:#2260a9;"/>
    <path clip-path="url(#p77a2406494)" d="
M338.58 85.4719
L349.74 85.4719
L349.74 84.6
L338.58 84.6
L338.58 85.4719" style="fill:#225ea8;"/>
    <path clip-path="url(#p77a2406494)" d="
M338.58 84.6
L349.74 84.6
L349.74 83.7281
L338.58 83.7281
L338.58 84.6" style="fill:#225da8;"/>
    <path clip-path="url(#p77a2406494)" d="
M338.58 83.7281
L349.74 83.7281
L349.74 82.8563
L338.58 82.8563
L338.58 83.7281" style="fill:#225ca7;"/>
    <path clip-path="url(#p77a2406494)" d="
M338.58 82.8563
L349.74 82.8563
L349.74 81.9844
L338.58 81.9844
L338.58 82.8563" style="fill:#225aa6;"/>
    <path clip-path="url(#p77a2406494)" d="
M338.58 81.9844
L349.74 81.9844
L349.74 81.1125
L338.58 81.1125
L338.58 81.9844" style="fill:#2259a6;"/>
    <path clip-path="url(#p77a2406494)" d="
M338.58 81.1125
L349.74 81.1125
L349.74 80.2406
L338.58 80.2406
L338.58 81.1125" style="fill:#2258a5;"/>
    <path clip-path="url(#p77a2406494)" d="
M338.58 80.2406
L349.74 80.2406
L349.74 79.3688
L338.58 79.3688
L338.58 80.2406" style="fill:#2356a4;"/>
    <path clip-path="url(#p77a2406494)" d="
M338.58 79.3688
L349.74 79.3688
L349.74 78.4969
L338.58 78.4969
L338.58 79.3688" style="fill:#2355a4;"/>
    <path clip-path="url(#p77a2406494)" d="
M338.58 78.4969
L349.74 78.4969
L349.74 77.625
L338.58 77.625
L338.58 78.4969" style="fill:#2354a3;"/>
    <path clip-path="url(#p77a2406494)" d="
M338.58 77.625
L349.74 77.625
L349.74 76.7531
L338.58 76.7531
L338.58 77.625" style="fill:#2352a3;"/>
    <path clip-path="url(#p77a2406494)" d="
M338.58 76.7531
L349.74 76.7531
L349.74 75.8813
L338.58 75.8813
L338.58 76.7531" style="fill:#2351a2;"/>
    <path clip-path="url(#p77a2406494)" d="
M338.58 75.8813
L349.74 75.8813
L349.74 75.0094
L338.58 75.0094
L338.58 75.8813" style="fill:#2350a1;"/>
    <path clip-path="url(#p77a2406494)" d="
M338.58 75.0094
L349.74 75.0094
L349.74 74.1375
L338.58 74.1375
L338.58 75.0094" style="fill:#234fa1;"/>
    <path clip-path="url(#p77a2406494)" d="
M338.58 74.1375
L349.74 74.1375
L349.74 73.2656
L338.58 73.2656
L338.58 74.1375" style="fill:#234da0;"/>
    <path clip-path="url(#p77a2406494)" d="
M338.58 73.2656
L349.74 73.2656
L349.74 72.3938
L338.58 72.3938
L338.58 73.2656" style="fill:#234c9f;"/>
    <path clip-path="url(#p77a2406494)" d="
M338.58 72.3938
L349.74 72.3938
L349.74 71.5219
L338.58 71.5219
L338.58 72.3938" style="fill:#234b9f;"/>
    <path clip-path="url(#p77a2406494)" d="
M338.58 71.5219
L349.74 71.5219
L349.74 70.65
L338.58 70.65
L338.58 71.5219" style="fill:#23499e;"/>
    <path clip-path="url(#p77a2406494)" d="
M338.58 70.65
L349.74 70.65
L349.74 69.7781
L338.58 69.7781
L338.58 70.65" style="fill:#24489d;"/>
    <path clip-path="url(#p77a2406494)" d="
M338.58 69.7781
L349.74 69.7781
L349.74 68.9063
L338.58 68.9063
L338.58 69.7781" style="fill:#24479d;"/>
    <path clip-path="url(#p77a2406494)" d="
M338.58 68.9063
L349.74 68.9063
L349.74 68.0344
L338.58 68.0344
L338.58 68.9063" style="fill:#24459c;"/>
    <path clip-path="url(#p77a2406494)" d="
M338.58 68.0344
L349.74 68.0344
L349.74 67.1625
L338.58 67.1625
L338.58 68.0344" style="fill:#24449c;"/>
    <path clip-path="url(#p77a2406494)" d="
M338.58 67.1625
L349.74 67.1625
L349.74 66.2906
L338.58 66.2906
L338.58 67.1625" style="fill:#24439b;"/>
    <path clip-path="url(#p77a2406494)" d="
M338.58 66.2906
L349.74 66.2906
L349.74 65.4188
L338.58 65.4188
L338.58 66.2906" style="fill:#24419a;"/>
    <path clip-path="url(#p77a2406494)" d="
M338.58 65.4188
L349.74 65.4188
L349.74 64.5469
L338.58 64.5469
L338.58 65.4188" style="fill:#24409a;"/>
    <path clip-path="url(#p77a2406494)" d="
M338.58 64.5469
L349.74 64.5469
L349.74 63.675
L338.58 63.675
L338.58 64.5469" style="fill:#243f99;"/>
    <path clip-path="url(#p77a2406494)" d="
M338.58 63.675
L349.74 63.675
L349.74 62.8031
L338.58 62.8031
L338.58 63.675" style="fill:#243d98;"/>
    <path clip-path="url(#p77a2406494)" d="
M338.58 62.8031
L349.74 62.8031
L349.74 61.9313
L338.58 61.9313
L338.58 62.8031" style="fill:#243c98;"/>
    <path clip-path="url(#p77a2406494)" d="
M338.58 61.9313
L349.74 61.9313
L349.74 61.0594
L338.58 61.0594
L338.58 61.9313" style="fill:#253b97;"/>
    <path clip-path="url(#p77a2406494)" d="
M338.58 61.0594
L349.74 61.0594
L349.74 60.1875
L338.58 60.1875
L338.58 61.0594" style="fill:#253997;"/>
    <path clip-path="url(#p77a2406494)" d="
M338.58 60.1875
L349.74 60.1875
L349.74 59.3156
L338.58 59.3156
L338.58 60.1875" style="fill:#253896;"/>
    <path clip-path="url(#p77a2406494)" d="
M338.58 59.3156
L349.74 59.3156
L349.74 58.4438
L338.58 58.4438
L338.58 59.3156" style="fill:#253795;"/>
    <path clip-path="url(#p77a2406494)" d="
M338.58 58.4438
L349.74 58.4438
L349.74 57.5719
L338.58 57.5719
L338.58 58.4438" style="fill:#253595;"/>
    <path clip-path="url(#p77a2406494)" d="
M338.58 57.5719
L349.74 57.5719
L349.74 56.7
L338.58 56.7
L338.58 57.5719" style="fill:#253494;"/>
    <path clip-path="url(#p77a2406494)" d="
M338.58 56.7
L349.74 56.7
L349.74 55.8281
L338.58 55.8281
L338.58 56.7" style="fill:#243392;"/>
    <path clip-path="url(#p77a2406494)" d="
M338.58 55.8281
L349.74 55.8281
L349.74 54.9563
L338.58 54.9563
L338.58 55.8281" style="fill:#233390;"/>
    <path clip-path="url(#p77a2406494)" d="
M338.58 54.9563
L349.74 54.9563
L349.74 54.0844
L338.58 54.0844
L338.58 54.9563" style="fill:#22328f;"/>
    <path clip-path="url(#p77a2406494)" d="
M338.58 54.0844
L349.74 54.0844
L349.74 53.2125
L338.58 53.2125
L338.58 54.0844" style="fill:#21318d;"/>
    <path clip-path="url(#p77a2406494)" d="
M338.58 53.2125
L349.74 53.2125
L349.74 52.3406
L338.58 52.3406
L338.58 53.2125" style="fill:#21308b;"/>
    <path clip-path="url(#p77a2406494)" d="
M338.58 52.3406
L349.74 52.3406
L349.74 51.4688
L338.58 51.4688
L338.58 52.3406" style="fill:#203089;"/>
    <path clip-path="url(#p77a2406494)" d="
M338.58 51.4688
L349.74 51.4688
L349.74 50.5969
L338.58 50.5969
L338.58 51.4688" style="fill:#1f2f87;"/>
    <path clip-path="url(#p77a2406494)" d="
M338.58 50.5969
L349.74 50.5969
L349.74 49.725
L338.58 49.725
L338.58 50.5969" style="fill:#1e2e85;"/>
    <path clip-path="url(#p77a2406494)" d="
M338.58 49.725
L349.74 49.725
L349.74 48.8531
L338.58 48.8531
L338.58 49.725" style="fill:#1d2e83;"/>
    <path clip-path="url(#p77a2406494)" d="
M338.58 48.8531
L349.74 48.8531
L349.74 47.9813
L338.58 47.9813
L338.58 48.8531" style="fill:#1c2d81;"/>
    <path clip-path="url(#p77a2406494)" d="
M338.58 47.9813
L349.74 47.9813
L349.74 47.1094
L338.58 47.1094
L338.58 47.9813" style="fill:#1b2c80;"/>
    <path clip-path="url(#p77a2406494)" d="
M338.58 47.1094
L349.74 47.1094
L349.74 46.2375
L338.58 46.2375
L338.58 47.1094" style="fill:#1a2b7e;"/>
    <path clip-path="url(#p77a2406494)" d="
M338.58 46.2375
L349.74 46.2375
L349.74 45.3656
L338.58 45.3656
L338.58 46.2375" style="fill:#192b7c;"/>
    <path clip-path="url(#p77a2406494)" d="
M338.58 45.3656
L349.74 45.3656
L349.74 44.4938
L338.58 44.4938
L338.58 45.3656" style="fill:#182a7a;"/>
    <path clip-path="url(#p77a2406494)" d="
M338.58 44.4938
L349.74 44.4938
L349.74 43.6219
L338.58 43.6219
L338.58 44.4938" style="fill:#172978;"/>
    <path clip-path="url(#p77a2406494)" d="
M338.58 43.6219
L349.74 43.6219
L349.74 42.75
L338.58 42.75
L338.58 43.6219" style="fill:#172976;"/>
    <path clip-path="url(#p77a2406494)" d="
M338.58 42.75
L349.74 42.75
L349.74 41.8781
L338.58 41.8781
L338.58 42.75" style="fill:#162874;"/>
    <path clip-path="url(#p77a2406494)" d="
M338.58 41.8781
L349.74 41.8781
L349.74 41.0063
L338.58 41.0063
L338.58 41.8781" style="fill:#152772;"/>
    <path clip-path="url(#p77a2406494)" d="
M338.58 41.0063
L349.74 41.0063
L349.74 40.1344
L338.58 40.1344
L338.58 41.0063" style="fill:#142670;"/>
    <path clip-path="url(#p77a2406494)" d="
M338.58 40.1344
L349.74 40.1344
L349.74 39.2625
L338.58 39.2625
L338.58 40.1344" style="fill:#13266f;"/>
    <path clip-path="url(#p77a2406494)" d="
M338.58 39.2625
L349.74 39.2625
L349.74 38.3906
L338.58 38.3906
L338.58 39.2625" style="fill:#12256d;"/>
    <path clip-path="url(#p77a2406494)" d="
M338.58 38.3906
L349.74 38.3906
L349.74 37.5188
L338.58 37.5188
L338.58 38.3906" style="fill:#11246b;"/>
    <path clip-path="url(#p77a2406494)" d="
M338.58 37.5188
L349.74 37.5188
L349.74 36.6469
L338.58 36.6469
L338.58 37.5188" style="fill:#102369;"/>
    <path clip-path="url(#p77a2406494)" d="
M338.58 36.6469
L349.74 36.6469
L349.74 35.775
L338.58 35.775
L338.58 36.6469" style="fill:#0f2367;"/>
    <path clip-path="url(#p77a2406494)" d="
M338.58 35.775
L349.74 35.775
L349.74 34.9031
L338.58 34.9031
L338.58 35.775" style="fill:#0e2265;"/>
    <path clip-path="url(#p77a2406494)" d="
M338.58 34.9031
L349.74 34.9031
L349.74 34.0312
L338.58 34.0312
L338.58 34.9031" style="fill:#0d2163;"/>
    <path clip-path="url(#p77a2406494)" d="
M338.58 34.0312
L349.74 34.0312
L349.74 33.1594
L338.58 33.1594
L338.58 34.0312" style="fill:#0d2161;"/>
    <path clip-path="url(#p77a2406494)" d="
M338.58 33.1594
L349.74 33.1594
L349.74 32.2875
L338.58 32.2875
L338.58 33.1594" style="fill:#0c2060;"/>
    <path clip-path="url(#p77a2406494)" d="
M338.58 32.2875
L349.74 32.2875
L349.74 31.4156
L338.58 31.4156
L338.58 32.2875" style="fill:#0b1f5e;"/>
    <path clip-path="url(#p77a2406494)" d="
M338.58 31.4156
L349.74 31.4156
L349.74 30.5438
L338.58 30.5438
L338.58 31.4156" style="fill:#0a1e5c;"/>
    <path clip-path="url(#p77a2406494)" d="
M338.58 30.5438
L349.74 30.5438
L349.74 29.6719
L338.58 29.6719
L338.58 30.5438" style="fill:#091e5a;"/>
    <path clip-path="url(#p77a2406494)" d="
M338.58 29.6719
L349.74 29.6719
L349.74 28.8
L338.58 28.8
L338.58 29.6719" style="fill:#081d58;"/>
   </g>
   <g id="patch_4">
    <path d="
M338.58 252
L338.58 251.128
L338.58 29.6719
L338.58 28.8
L349.74 28.8
L349.74 29.6719
L349.74 251.128
L349.74 252
L338.58 252" style="fill:none;"/>
   </g>
  </g>
 </g>
 <defs>
  <clipPath id="p77a2406494">
   <rect height="223.2" width="11.16" x="338.58" y="28.8"/>
  </clipPath>
  <clipPath id="pf0d32d625f">
   <rect height="223.2" width="267.84" x="54.0" y="28.8"/>
  </clipPath>
 </defs>
</svg>
